M48
; DRILL file KiCad 10.0.4 date 2026-06-30T20:18:30
; FORMAT={-:-/ absolute / metric / decimal}
; #@! TF.CreationDate,2026-06-30T20:18:30+03:00
; #@! TF.GenerationSoftware,Kicad,Pcbnew,10.0.4
; #@! TF.FileFunction,Plated,1,2,PTH
FMAT,2
METRIC
; #@! TA.AperFunction,Plated,PTH,ViaDrill
T1C0.300
; #@! TA.AperFunction,Plated,PTH,ComponentDrill
T2C0.600
; #@! TA.AperFunction,Plated,PTH,ComponentDrill
T3C0.800
; #@! TA.AperFunction,Plated,PTH,ComponentDrill
T4C0.900
; #@! TA.AperFunction,Plated,PTH,ComponentDrill
T5C1.000
%
G90
G05
T1
X160.75Y-49.25
X160.75Y-52.25
X160.75Y-53.75
T3
X111.67Y-125.75
X121.83Y-125.75
X136.25Y-123.67
X136.25Y-133.83
X144.75Y-47.75
X144.84Y-54.5
X152.59Y-125.75
X154.91Y-47.75
X155.0Y-54.5
X162.75Y-125.75
T4
X104.725Y-125.75
X107.265Y-125.75
X134.725Y-139.5
X137.265Y-139.5
X167.485Y-125.75
X170.025Y-125.75
T5
X120.5Y-51.0
X120.5Y-53.54
X120.5Y-56.08
X122.175Y-116.075
X124.715Y-116.075
X127.255Y-116.075
X129.795Y-116.075
X131.315Y-67.815
X132.335Y-116.075
X133.855Y-67.815
X134.875Y-116.075
X136.395Y-67.815
X137.415Y-116.075
X138.935Y-67.815
X139.955Y-116.075
X141.475Y-67.815
X142.495Y-116.075
X144.015Y-67.815
X145.035Y-116.075
X146.555Y-67.815
X149.095Y-67.815
X149.095Y-116.075
X151.635Y-116.075
X154.175Y-67.815
X154.175Y-116.075
X156.715Y-67.815
X156.715Y-116.075
X159.255Y-67.815
X159.255Y-116.075
X161.795Y-67.815
X161.795Y-116.075
X164.335Y-67.815
X164.335Y-116.075
X166.875Y-67.815
X166.875Y-116.075
T2
G00X161.845Y-46.68
M15
G01X162.945Y-46.68
M16
G05
G00X161.845Y-55.32
M15
G01X162.945Y-55.32
M16
G05
G00X166.175Y-46.68
M15
G01X166.975Y-46.68
M16
G05
G00X166.175Y-55.32
M15
G01X166.975Y-55.32
M16
G05
M30
