%TF.GenerationSoftware,KiCad,Pcbnew,10.0.4*%
%TF.CreationDate,2026-06-30T20:18:33+03:00*%
%TF.ProjectId,sound-activated-logic-controller,736f756e-642d-4616-9374-697661746564,rev?*%
%TF.SameCoordinates,Original*%
%TF.FileFunction,Copper,L2,Bot*%
%TF.FilePolarity,Positive*%
%FSLAX46Y46*%
G04 Gerber Fmt 4.6, Leading zero omitted, Abs format (unit mm)*
G04 Created by KiCad (PCBNEW 10.0.4) date 2026-06-30 20:18:33*
%MOMM*%
%LPD*%
G01*
G04 APERTURE LIST*
%TA.AperFunction,ComponentPad*%
%ADD10C,1.600000*%
%TD*%
%TA.AperFunction,ComponentPad*%
%ADD11O,1.800000X1.000000*%
%TD*%
%TA.AperFunction,ComponentPad*%
%ADD12O,2.100000X1.000000*%
%TD*%
%TA.AperFunction,ComponentPad*%
%ADD13R,1.700000X1.700000*%
%TD*%
%TA.AperFunction,ComponentPad*%
%ADD14C,1.700000*%
%TD*%
%TA.AperFunction,ComponentPad*%
%ADD15R,1.800000X1.800000*%
%TD*%
%TA.AperFunction,ComponentPad*%
%ADD16C,1.800000*%
%TD*%
%TA.AperFunction,ComponentPad*%
%ADD17R,1.600000X1.600000*%
%TD*%
%TA.AperFunction,ComponentPad*%
%ADD18O,1.600000X1.600000*%
%TD*%
%TA.AperFunction,ViaPad*%
%ADD19C,0.600000*%
%TD*%
%TA.AperFunction,Conductor*%
%ADD20C,0.500000*%
%TD*%
%TA.AperFunction,Conductor*%
%ADD21C,0.200000*%
%TD*%
%TA.AperFunction,Conductor*%
%ADD22C,0.250000*%
%TD*%
G04 APERTURE END LIST*
D10*
%TO.P,330\u03A9,1*%
%TO.N,Net-(D2-A)*%
X162750000Y-125750000D03*
%TO.P,330\u03A9,2*%
%TO.N,3*%
X152590000Y-125750000D03*
%TD*%
D11*
%TO.P,J1,SH,SHIELD_SH*%
%TO.N,GND*%
X166575000Y-46680000D03*
D12*
X162395000Y-46680000D03*
D11*
X166575000Y-55320000D03*
D12*
X162395000Y-55320000D03*
%TD*%
D10*
%TO.P,330\u03A9,2*%
%TO.N,5*%
X136250000Y-123670000D03*
%TO.P,330\u03A9,1*%
%TO.N,Net-(D3-A)*%
X136250000Y-133830000D03*
%TD*%
D13*
%TO.P,U1,1,VCC_1*%
%TO.N,5V*%
X120500000Y-51000000D03*
D14*
%TO.P,U1,2,GND_2*%
%TO.N,GND*%
X120500000Y-53540000D03*
%TO.P,U1,3,OUT_3*%
%TO.N,8*%
X120500000Y-56080000D03*
%TD*%
D10*
%TO.P,5.1k\u03A9,1*%
%TO.N,Net-(J1-CC2)*%
X154910000Y-47750000D03*
%TO.P,5.1k\u03A9,2*%
%TO.N,GND*%
X144750000Y-47750000D03*
%TD*%
%TO.P,5.1k\u03A9,1*%
%TO.N,Net-(J1-CC1)*%
X155000000Y-54500000D03*
%TO.P,5.1k\u03A9,2*%
%TO.N,GND*%
X144840000Y-54500000D03*
%TD*%
%TO.P,330\u03A9,1*%
%TO.N,Net-(D1-A)*%
X111670000Y-125750000D03*
%TO.P,330\u03A9,2*%
%TO.N,10*%
X121830000Y-125750000D03*
%TD*%
D15*
%TO.P,Green Led,1,K_1*%
%TO.N,GND*%
X134725000Y-139500000D03*
D16*
%TO.P,Green Led,2,A_2*%
%TO.N,Net-(D3-A)*%
X137265000Y-139500000D03*
%TD*%
D15*
%TO.P,Yellow Led,1,K_1*%
%TO.N,GND*%
X170025000Y-125750000D03*
D16*
%TO.P,Yellow Led,2,A_2*%
%TO.N,Net-(D2-A)*%
X167485000Y-125750000D03*
%TD*%
D15*
%TO.P,Red Led,1,K_1*%
%TO.N,GND*%
X104725000Y-125750000D03*
D16*
%TO.P,Red Led,2,A_2*%
%TO.N,Net-(D1-A)*%
X107265000Y-125750000D03*
%TD*%
D17*
%TO.P,A1,1,NC_1*%
%TO.N,unconnected-(A1-NC-Pad1)*%
X131315000Y-67815000D03*
D18*
%TO.P,A1,2,IOREF_2*%
%TO.N,unconnected-(A1-IOREF-Pad2)*%
X133855000Y-67815000D03*
%TO.P,A1,3,~{RESET}_3*%
%TO.N,unconnected-(A1-~{RESET}-Pad3)*%
X136395000Y-67815000D03*
%TO.P,A1,4,3V3_4*%
%TO.N,unconnected-(A1-3V3-Pad4)*%
X138935000Y-67815000D03*
%TO.P,A1,5,+5V_5*%
%TO.N,5V*%
X141475000Y-67815000D03*
%TO.P,A1,6,GND_6*%
%TO.N,GND*%
X144015000Y-67815000D03*
%TO.P,A1,7,GND_7*%
X146555000Y-67815000D03*
%TO.P,A1,8,VIN_8*%
%TO.N,VIN*%
X149095000Y-67815000D03*
%TO.P,A1,9,A0_9*%
%TO.N,unconnected-(A1-A0-Pad9)*%
X154175000Y-67815000D03*
%TO.P,A1,10,A1_10*%
%TO.N,unconnected-(A1-A1-Pad10)*%
X156715000Y-67815000D03*
%TO.P,A1,11,A2_11*%
%TO.N,unconnected-(A1-A2-Pad11)*%
X159255000Y-67815000D03*
%TO.P,A1,12,A3_12*%
%TO.N,unconnected-(A1-A3-Pad12)*%
X161795000Y-67815000D03*
%TO.P,A1,13,SDA/A4_13*%
%TO.N,unconnected-(A1-SDA{slash}A4-Pad13)*%
X164335000Y-67815000D03*
%TO.P,A1,14,SCL/A5_14*%
%TO.N,unconnected-(A1-SCL{slash}A5-Pad14)*%
X166875000Y-67815000D03*
%TO.P,A1,15,D0/RX_15*%
%TO.N,unconnected-(A1-D0{slash}RX-Pad15)*%
X166875000Y-116075000D03*
%TO.P,A1,16,D1/TX_16*%
%TO.N,unconnected-(A1-D1{slash}TX-Pad16)*%
X164335000Y-116075000D03*
%TO.P,A1,17,D2_17*%
%TO.N,unconnected-(A1-D2-Pad17)*%
X161795000Y-116075000D03*
%TO.P,A1,18,D3_18*%
%TO.N,3*%
X159255000Y-116075000D03*
%TO.P,A1,19,D4_19*%
%TO.N,unconnected-(A1-D4-Pad19)*%
X156715000Y-116075000D03*
%TO.P,A1,20,D5_20*%
%TO.N,5*%
X154175000Y-116075000D03*
%TO.P,A1,21,D6_21*%
%TO.N,unconnected-(A1-D6-Pad21)*%
X151635000Y-116075000D03*
%TO.P,A1,22,D7_22*%
%TO.N,unconnected-(A1-D7-Pad22)*%
X149095000Y-116075000D03*
%TO.P,A1,23,D8_23*%
%TO.N,8*%
X145035000Y-116075000D03*
%TO.P,A1,24,D9_24*%
%TO.N,unconnected-(A1-D9-Pad24)*%
X142495000Y-116075000D03*
%TO.P,A1,25,D10_25*%
%TO.N,10*%
X139955000Y-116075000D03*
%TO.P,A1,26,D11_26*%
%TO.N,unconnected-(A1-D11-Pad26)*%
X137415000Y-116075000D03*
%TO.P,A1,27,D12_27*%
%TO.N,unconnected-(A1-D12-Pad27)*%
X134875000Y-116075000D03*
%TO.P,A1,28,D13_28*%
%TO.N,unconnected-(A1-D13-Pad28)*%
X132335000Y-116075000D03*
%TO.P,A1,29,GND_29*%
%TO.N,GND*%
X129795000Y-116075000D03*
%TO.P,A1,30,AREF_30*%
%TO.N,unconnected-(A1-AREF-Pad30)*%
X127255000Y-116075000D03*
%TO.P,A1,31,SDA/A4_31*%
%TO.N,unconnected-(A1-SDA{slash}A4-Pad31)*%
X124715000Y-116075000D03*
%TO.P,A1,32,SCL/A5_32*%
%TO.N,unconnected-(A1-SCL{slash}A5-Pad32)*%
X122175000Y-116075000D03*
%TD*%
D19*
%TO.N,VIN*%
X160750000Y-53750000D03*
%TO.N,Net-(J1-CC1)*%
X160750000Y-52250000D03*
%TO.N,Net-(J1-CC2)*%
X160750000Y-49250000D03*
%TD*%
%TO.N,5V*%
D20*
X124660000Y-51000000D02*
X141475000Y-67815000D01*
X120500000Y-51000000D02*
X124660000Y-51000000D01*
%TO.N,8*%
D21*
X104250000Y-56000000D02*
X120420000Y-56000000D01*
X99000000Y-130000000D02*
X96000000Y-127000000D01*
X120420000Y-56000000D02*
X120500000Y-56080000D01*
X133500000Y-122250000D02*
X125750000Y-130000000D01*
X125750000Y-130000000D02*
X99000000Y-130000000D01*
X138860000Y-122250000D02*
X133500000Y-122250000D01*
X96000000Y-64250000D02*
X104250000Y-56000000D01*
X145035000Y-116075000D02*
X138860000Y-122250000D01*
X96000000Y-127000000D02*
X96000000Y-64250000D01*
%TO.N,5*%
X136250000Y-123670000D02*
X146580000Y-123670000D01*
%TO.N,Net-(D1-A)*%
X107265000Y-125750000D02*
X111670000Y-125750000D01*
%TO.N,Net-(D3-A)*%
X136250000Y-134985000D02*
X136250000Y-133830000D01*
X136765000Y-135500000D02*
X136250000Y-134985000D01*
%TO.N,Net-(J1-CC1)*%
D22*
X157250000Y-52250000D02*
X155000000Y-54500000D01*
X160750000Y-52250000D02*
X157250000Y-52250000D01*
%TO.N,VIN*%
D20*
X160750000Y-53750000D02*
X149095000Y-65405000D01*
X149095000Y-65405000D02*
X149095000Y-67815000D01*
%TO.N,Net-(J1-CC2)*%
D22*
X159250000Y-47750000D02*
X154910000Y-47750000D01*
X160750000Y-49250000D02*
X159250000Y-47750000D01*
%TO.N,Net-(D2-A)*%
D21*
X162750000Y-125750000D02*
X167485000Y-125750000D01*
%TO.N,Net-(D3-A)*%
X136765000Y-139500000D02*
X136765000Y-135500000D01*
%TO.N,3*%
X152590000Y-122740000D02*
X159255000Y-116075000D01*
X152590000Y-125750000D02*
X152590000Y-122740000D01*
%TO.N,5*%
X146580000Y-123670000D02*
X154175000Y-116075000D01*
%TO.N,10*%
X135280000Y-120750000D02*
X139955000Y-116075000D01*
X132500000Y-120750000D02*
X135280000Y-120750000D01*
X127500000Y-125750000D02*
X132500000Y-120750000D01*
X121830000Y-125750000D02*
X127500000Y-125750000D01*
%TD*%
%TA.AperFunction,Conductor*%
%TO.N,GND*%
G36*
X146089075Y-67622007D02*
G01*
X146055000Y-67749174D01*
X146055000Y-67880826D01*
X146089075Y-68007993D01*
X146121988Y-68065000D01*
X144448012Y-68065000D01*
X144480925Y-68007993D01*
X144515000Y-67880826D01*
X144515000Y-67749174D01*
X144480925Y-67622007D01*
X144448012Y-67565000D01*
X146121988Y-67565000D01*
X146089075Y-67622007D01*
G37*
%TD.AperFunction*%
%TA.AperFunction,Conductor*%
G36*
X177192539Y-44020185D02*
G01*
X177238294Y-44072989D01*
X177249500Y-44124500D01*
X177249500Y-144375500D01*
X177229815Y-144442539D01*
X177177011Y-144488294D01*
X177125500Y-144499500D01*
X91874500Y-144499500D01*
X91807461Y-144479815D01*
X91761706Y-144427011D01*
X91750500Y-144375500D01*
X91750500Y-138552155D01*
X133325000Y-138552155D01*
X133325000Y-139250000D01*
X134349722Y-139250000D01*
X134305667Y-139326306D01*
X134275000Y-139440756D01*
X134275000Y-139559244D01*
X134305667Y-139673694D01*
X134349722Y-139750000D01*
X133325000Y-139750000D01*
X133325000Y-140447844D01*
X133331401Y-140507372D01*
X133331403Y-140507379D01*
X133381645Y-140642086D01*
X133381649Y-140642093D01*
X133467809Y-140757187D01*
X133467812Y-140757190D01*
X133582906Y-140843350D01*
X133582913Y-140843354D01*
X133717620Y-140893596D01*
X133717627Y-140893598D01*
X133777155Y-140899999D01*
X133777172Y-140900000D01*
X134475000Y-140900000D01*
X134475000Y-139875277D01*
X134551306Y-139919333D01*
X134665756Y-139950000D01*
X134784244Y-139950000D01*
X134898694Y-139919333D01*
X134975000Y-139875277D01*
X134975000Y-140900000D01*
X135672828Y-140900000D01*
X135672844Y-140899999D01*
X135732372Y-140893598D01*
X135732379Y-140893596D01*
X135867086Y-140843354D01*
X135867093Y-140843350D01*
X135982187Y-140757190D01*
X135982190Y-140757187D01*
X136068350Y-140642093D01*
X136068354Y-140642086D01*
X136098213Y-140562031D01*
X136140084Y-140506097D01*
X136205548Y-140481680D01*
X136273821Y-140496531D01*
X136302076Y-140517683D01*
X136352636Y-140568243D01*
X136352641Y-140568247D01*
X136508192Y-140681260D01*
X136530978Y-140697815D01*
X136647501Y-140757187D01*
X136727393Y-140797895D01*
X136727396Y-140797896D01*
X136832221Y-140831955D01*
X136937049Y-140866015D01*
X137154778Y-140900500D01*
X137154779Y-140900500D01*
X137375221Y-140900500D01*
X137375222Y-140900500D01*
X137592951Y-140866015D01*
X137802606Y-140797895D01*
X137999022Y-140697815D01*
X138177365Y-140568242D01*
X138333242Y-140412365D01*
X138462815Y-140234022D01*
X138562895Y-140037606D01*
X138631015Y-139827951D01*
X138665500Y-139610222D01*
X138665500Y-139389778D01*
X138631015Y-139172049D01*
X138596955Y-139067221D01*
X138562896Y-138962396D01*
X138562895Y-138962393D01*
X138528237Y-138894375D01*
X138462815Y-138765978D01*
X138365500Y-138632034D01*
X138333247Y-138587641D01*
X138333243Y-138587636D01*
X138177363Y-138431756D01*
X138177358Y-138431752D01*
X137999025Y-138302187D01*
X137999024Y-138302186D01*
X137999022Y-138302185D01*
X137936096Y-138270122D01*
X137802606Y-138202104D01*
X137802603Y-138202103D01*
X137592952Y-138133985D01*
X137470102Y-138114527D01*
X137406967Y-138084598D01*
X137370036Y-138025286D01*
X137365500Y-137992054D01*
X137365500Y-135589059D01*
X137365501Y-135589046D01*
X137365501Y-135420945D01*
X137365501Y-135420943D01*
X137324577Y-135268215D01*
X137324575Y-135268212D01*
X137324575Y-135268210D01*
X137324574Y-135268209D01*
X137294884Y-135216785D01*
X137294882Y-135216783D01*
X137245521Y-135131286D01*
X137245520Y-135131284D01*
X137133716Y-135019480D01*
X137133715Y-135019479D01*
X137129385Y-135015149D01*
X137129374Y-135015139D01*
X137104391Y-134990156D01*
X137070906Y-134928833D01*
X137075890Y-134859141D01*
X137104391Y-134814794D01*
X137241966Y-134677219D01*
X137241968Y-134677215D01*
X137241971Y-134677213D01*
X137294732Y-134604590D01*
X137362287Y-134511610D01*
X137455220Y-134329219D01*
X137518477Y-134134534D01*
X137550500Y-133932352D01*
X137550500Y-133727648D01*
X137518477Y-133525466D01*
X137455220Y-133330781D01*
X137455218Y-133330778D01*
X137455218Y-133330776D01*
X137421503Y-133264607D01*
X137362287Y-133148390D01*
X137354556Y-133137749D01*
X137241971Y-132982786D01*
X137097213Y-132838028D01*
X136931613Y-132717715D01*
X136931612Y-132717714D01*
X136931610Y-132717713D01*
X136874653Y-132688691D01*
X136749223Y-132624781D01*
X136554534Y-132561522D01*
X136379995Y-132533878D01*
X136352352Y-132529500D01*
X136147648Y-132529500D01*
X136123329Y-132533351D01*
X135945465Y-132561522D01*
X135750776Y-132624781D01*
X135568386Y-132717715D01*
X135402786Y-132838028D01*
X135258028Y-132982786D01*
X135137715Y-133148386D01*
X135044781Y-133330776D01*
X134981522Y-133525465D01*
X134949500Y-133727648D01*
X134949500Y-133932351D01*
X134981522Y-134134534D01*
X135044781Y-134329223D01*
X135137715Y-134511613D01*
X135258028Y-134677213D01*
X135402786Y-134821971D01*
X135568387Y-134942286D01*
X135581791Y-134949115D01*
X135632588Y-134997088D01*
X135649499Y-135059601D01*
X135649499Y-135064054D01*
X135649498Y-135064054D01*
X135690423Y-135216785D01*
X135719358Y-135266900D01*
X135719359Y-135266904D01*
X135719360Y-135266904D01*
X135769479Y-135353714D01*
X135769481Y-135353717D01*
X135888349Y-135472585D01*
X135888355Y-135472590D01*
X136128181Y-135712416D01*
X136161666Y-135773739D01*
X136164500Y-135800097D01*
X136164500Y-138131566D01*
X136144815Y-138198605D01*
X136092011Y-138244360D01*
X136022853Y-138254304D01*
X135966189Y-138230833D01*
X135867089Y-138156647D01*
X135867086Y-138156645D01*
X135732379Y-138106403D01*
X135732372Y-138106401D01*
X135672844Y-138100000D01*
X134975000Y-138100000D01*
X134975000Y-139124722D01*
X134898694Y-139080667D01*
X134784244Y-139050000D01*
X134665756Y-139050000D01*
X134551306Y-139080667D01*
X134475000Y-139124722D01*
X134475000Y-138100000D01*
X133777155Y-138100000D01*
X133717627Y-138106401D01*
X133717620Y-138106403D01*
X133582913Y-138156645D01*
X133582906Y-138156649D01*
X133467812Y-138242809D01*
X133467809Y-138242812D01*
X133381649Y-138357906D01*
X133381645Y-138357913D01*
X133331403Y-138492620D01*
X133331401Y-138492627D01*
X133325000Y-138552155D01*
X91750500Y-138552155D01*
X91750500Y-127079054D01*
X95399498Y-127079054D01*
X95440423Y-127231785D01*
X95469358Y-127281900D01*
X95469359Y-127281904D01*
X95469360Y-127281904D01*
X95519479Y-127368714D01*
X95519481Y-127368717D01*
X95638349Y-127487585D01*
X95638354Y-127487589D01*
X98631284Y-130480520D01*
X98631286Y-130480521D01*
X98631290Y-130480524D01*
X98768209Y-130559573D01*
X98768216Y-130559577D01*
X98920943Y-130600501D01*
X98920945Y-130600501D01*
X99086654Y-130600501D01*
X99086670Y-130600500D01*
X125663331Y-130600500D01*
X125663347Y-130600501D01*
X125670943Y-130600501D01*
X125829054Y-130600501D01*
X125829057Y-130600501D01*
X125981785Y-130559577D01*
X126031904Y-130530639D01*
X126118716Y-130480520D01*
X126230520Y-130368716D01*
X126230520Y-130368714D01*
X126240728Y-130358507D01*
X126240729Y-130358504D01*
X133712416Y-122886819D01*
X133773739Y-122853334D01*
X133800097Y-122850500D01*
X135005622Y-122850500D01*
X135072661Y-122870185D01*
X135118416Y-122922989D01*
X135128360Y-122992147D01*
X135116107Y-123030792D01*
X135099761Y-123062873D01*
X135044781Y-123170776D01*
X134981522Y-123365465D01*
X134949500Y-123567648D01*
X134949500Y-123772351D01*
X134981522Y-123974534D01*
X135044781Y-124169223D01*
X135137715Y-124351613D01*
X135258028Y-124517213D01*
X135402786Y-124661971D01*
X135557749Y-124774556D01*
X135568390Y-124782287D01*
X135677018Y-124837636D01*
X135750776Y-124875218D01*
X135750778Y-124875218D01*
X135750781Y-124875220D01*
X135855137Y-124909127D01*
X135945465Y-124938477D01*
X136046557Y-124954488D01*
X136147648Y-124970500D01*
X136147649Y-124970500D01*
X136352351Y-124970500D01*
X136352352Y-124970500D01*
X136554534Y-124938477D01*
X136749219Y-124875220D01*
X136931610Y-124782287D01*
X137061430Y-124687968D01*
X137097213Y-124661971D01*
X137097215Y-124661968D01*
X137097219Y-124661966D01*
X137241966Y-124517219D01*
X137241968Y-124517215D01*
X137241971Y-124517213D01*
X137362284Y-124351614D01*
X137362285Y-124351613D01*
X137362287Y-124351610D01*
X137369117Y-124338204D01*
X137417091Y-124287409D01*
X137479602Y-124270500D01*
X146493331Y-124270500D01*
X146493347Y-124270501D01*
X146500943Y-124270501D01*
X146659054Y-124270501D01*
X146659057Y-124270501D01*
X146811785Y-124229577D01*
X146861904Y-124200639D01*
X146948716Y-124150520D01*
X147060520Y-124038716D01*
X147060520Y-124038714D01*
X147070728Y-124028507D01*
X147070730Y-124028504D01*
X153730158Y-117369075D01*
X153791479Y-117335592D01*
X153856151Y-117338825D01*
X153870466Y-117343477D01*
X154072648Y-117375500D01*
X154072649Y-117375500D01*
X154277351Y-117375500D01*
X154277352Y-117375500D01*
X154479534Y-117343477D01*
X154674219Y-117280220D01*
X154856610Y-117187287D01*
X154949590Y-117119732D01*
X155022213Y-117066971D01*
X155022215Y-117066968D01*
X155022219Y-117066966D01*
X155166966Y-116922219D01*
X155166968Y-116922215D01*
X155166971Y-116922213D01*
X155287284Y-116756614D01*
X155287286Y-116756611D01*
X155287287Y-116756610D01*
X155334516Y-116663917D01*
X155382489Y-116613123D01*
X155450310Y-116596328D01*
X155516445Y-116618865D01*
X155555485Y-116663919D01*
X155602715Y-116756614D01*
X155723028Y-116922213D01*
X155867786Y-117066971D01*
X156022749Y-117179556D01*
X156033390Y-117187287D01*
X156149607Y-117246503D01*
X156215776Y-117280218D01*
X156215778Y-117280218D01*
X156215781Y-117280220D01*
X156320137Y-117314127D01*
X156410465Y-117343477D01*
X156511557Y-117359488D01*
X156612648Y-117375500D01*
X156612649Y-117375500D01*
X156805902Y-117375500D01*
X156872941Y-117395185D01*
X156918696Y-117447989D01*
X156928640Y-117517147D01*
X156899615Y-117580703D01*
X156893583Y-117587181D01*
X152109481Y-122371282D01*
X152109477Y-122371287D01*
X152092023Y-122401521D01*
X152092022Y-122401523D01*
X152030423Y-122508215D01*
X151989499Y-122660943D01*
X151989499Y-122660945D01*
X151989499Y-122829046D01*
X151989500Y-122829059D01*
X151989500Y-124520397D01*
X151969815Y-124587436D01*
X151921800Y-124630879D01*
X151908389Y-124637712D01*
X151742786Y-124758028D01*
X151598028Y-124902786D01*
X151477715Y-125068386D01*
X151384781Y-125250776D01*
X151321522Y-125445465D01*
X151289500Y-125647648D01*
X151289500Y-125852351D01*
X151321522Y-126054534D01*
X151384781Y-126249223D01*
X151436385Y-126350500D01*
X151470882Y-126418204D01*
X151477715Y-126431613D01*
X151598028Y-126597213D01*
X151742786Y-126741971D01*
X151897749Y-126854556D01*
X151908390Y-126862287D01*
X152008603Y-126913348D01*
X152090776Y-126955218D01*
X152090778Y-126955218D01*
X152090781Y-126955220D01*
X152195137Y-126989127D01*
X152285465Y-127018477D01*
X152386557Y-127034488D01*
X152487648Y-127050500D01*
X152487649Y-127050500D01*
X152692351Y-127050500D01*
X152692352Y-127050500D01*
X152894534Y-127018477D01*
X153089219Y-126955220D01*
X153271610Y-126862287D01*
X153401821Y-126767684D01*
X153437213Y-126741971D01*
X153437215Y-126741968D01*
X153437219Y-126741966D01*
X153581966Y-126597219D01*
X153581968Y-126597215D01*
X153581971Y-126597213D01*
X153664207Y-126484023D01*
X153702287Y-126431610D01*
X153795220Y-126249219D01*
X153858477Y-126054534D01*
X153890500Y-125852352D01*
X153890500Y-125647648D01*
X161449500Y-125647648D01*
X161449500Y-125852351D01*
X161481522Y-126054534D01*
X161544781Y-126249223D01*
X161596385Y-126350500D01*
X161630882Y-126418204D01*
X161637715Y-126431613D01*
X161758028Y-126597213D01*
X161902786Y-126741971D01*
X162057749Y-126854556D01*
X162068390Y-126862287D01*
X162168603Y-126913348D01*
X162250776Y-126955218D01*
X162250778Y-126955218D01*
X162250781Y-126955220D01*
X162355137Y-126989127D01*
X162445465Y-127018477D01*
X162546557Y-127034488D01*
X162647648Y-127050500D01*
X162647649Y-127050500D01*
X162852351Y-127050500D01*
X162852352Y-127050500D01*
X163054534Y-127018477D01*
X163249219Y-126955220D01*
X163431610Y-126862287D01*
X163561821Y-126767684D01*
X163597213Y-126741971D01*
X163597215Y-126741968D01*
X163597219Y-126741966D01*
X163741966Y-126597219D01*
X163741968Y-126597215D01*
X163741971Y-126597213D01*
X163862284Y-126431614D01*
X163862285Y-126431613D01*
X163862287Y-126431610D01*
X163869117Y-126418204D01*
X163917091Y-126367409D01*
X163979602Y-126350500D01*
X166143164Y-126350500D01*
X166210203Y-126370185D01*
X166253648Y-126418204D01*
X166287185Y-126484023D01*
X166416752Y-126662358D01*
X166416756Y-126662363D01*
X166572636Y-126818243D01*
X166572641Y-126818247D01*
X166703513Y-126913330D01*
X166750978Y-126947815D01*
X166867501Y-127007187D01*
X166947393Y-127047895D01*
X166947396Y-127047896D01*
X167043293Y-127079054D01*
X167157049Y-127116015D01*
X167374778Y-127150500D01*
X167374779Y-127150500D01*
X167595221Y-127150500D01*
X167595222Y-127150500D01*
X167812951Y-127116015D01*
X168022606Y-127047895D01*
X168219022Y-126947815D01*
X168397365Y-126818242D01*
X168447924Y-126767682D01*
X168509245Y-126734198D01*
X168578936Y-126739182D01*
X168634870Y-126781053D01*
X168651786Y-126812030D01*
X168681646Y-126892087D01*
X168681649Y-126892093D01*
X168767809Y-127007187D01*
X168767812Y-127007190D01*
X168882906Y-127093350D01*
X168882913Y-127093354D01*
X169017620Y-127143596D01*
X169017627Y-127143598D01*
X169077155Y-127149999D01*
X169077172Y-127150000D01*
X169775000Y-127150000D01*
X169775000Y-126125277D01*
X169851306Y-126169333D01*
X169965756Y-126200000D01*
X170084244Y-126200000D01*
X170198694Y-126169333D01*
X170275000Y-126125277D01*
X170275000Y-127150000D01*
X170972828Y-127150000D01*
X170972844Y-127149999D01*
X171032372Y-127143598D01*
X171032379Y-127143596D01*
X171167086Y-127093354D01*
X171167093Y-127093350D01*
X171282187Y-127007190D01*
X171282190Y-127007187D01*
X171368350Y-126892093D01*
X171368354Y-126892086D01*
X171418596Y-126757379D01*
X171418598Y-126757372D01*
X171424999Y-126697844D01*
X171425000Y-126697827D01*
X171425000Y-126000000D01*
X170400278Y-126000000D01*
X170444333Y-125923694D01*
X170475000Y-125809244D01*
X170475000Y-125690756D01*
X170444333Y-125576306D01*
X170400278Y-125500000D01*
X171425000Y-125500000D01*
X171425000Y-124802172D01*
X171424999Y-124802155D01*
X171418598Y-124742627D01*
X171418596Y-124742620D01*
X171368354Y-124607913D01*
X171368350Y-124607906D01*
X171282190Y-124492812D01*
X171282187Y-124492809D01*
X171167093Y-124406649D01*
X171167086Y-124406645D01*
X171032379Y-124356403D01*
X171032372Y-124356401D01*
X170972844Y-124350000D01*
X170275000Y-124350000D01*
X170275000Y-125374722D01*
X170198694Y-125330667D01*
X170084244Y-125300000D01*
X169965756Y-125300000D01*
X169851306Y-125330667D01*
X169775000Y-125374722D01*
X169775000Y-124350000D01*
X169077155Y-124350000D01*
X169017627Y-124356401D01*
X169017620Y-124356403D01*
X168882913Y-124406645D01*
X168882906Y-124406649D01*
X168767812Y-124492809D01*
X168767809Y-124492812D01*
X168681649Y-124607906D01*
X168681643Y-124607918D01*
X168651785Y-124687969D01*
X168609914Y-124743903D01*
X168544449Y-124768319D01*
X168476176Y-124753467D01*
X168447923Y-124732316D01*
X168397363Y-124681756D01*
X168397358Y-124681752D01*
X168219025Y-124552187D01*
X168219024Y-124552186D01*
X168219022Y-124552185D01*
X168150386Y-124517213D01*
X168022606Y-124452104D01*
X168022603Y-124452103D01*
X167812952Y-124383985D01*
X167704086Y-124366742D01*
X167595222Y-124349500D01*
X167374778Y-124349500D01*
X167302201Y-124360995D01*
X167157047Y-124383985D01*
X166947396Y-124452103D01*
X166947393Y-124452104D01*
X166750974Y-124552187D01*
X166572641Y-124681752D01*
X166572636Y-124681756D01*
X166416756Y-124837636D01*
X166416752Y-124837641D01*
X166287185Y-125015976D01*
X166253648Y-125081796D01*
X166205674Y-125132591D01*
X166143164Y-125149500D01*
X163979602Y-125149500D01*
X163912563Y-125129815D01*
X163869117Y-125081795D01*
X163862284Y-125068385D01*
X163741971Y-124902786D01*
X163597213Y-124758028D01*
X163431613Y-124637715D01*
X163431612Y-124637714D01*
X163431610Y-124637713D01*
X163373111Y-124607906D01*
X163249223Y-124544781D01*
X163054534Y-124481522D01*
X162868799Y-124452105D01*
X162852352Y-124449500D01*
X162647648Y-124449500D01*
X162631201Y-124452105D01*
X162445465Y-124481522D01*
X162250776Y-124544781D01*
X162068386Y-124637715D01*
X161902786Y-124758028D01*
X161758028Y-124902786D01*
X161637715Y-125068386D01*
X161544781Y-125250776D01*
X161481522Y-125445465D01*
X161449500Y-125647648D01*
X153890500Y-125647648D01*
X153858477Y-125445465D01*
X153829127Y-125355137D01*
X153795220Y-125250781D01*
X153795218Y-125250778D01*
X153795218Y-125250776D01*
X153761503Y-125184607D01*
X153702287Y-125068390D01*
X153664208Y-125015978D01*
X153581971Y-124902786D01*
X153437213Y-124758028D01*
X153271610Y-124637712D01*
X153258200Y-124630879D01*
X153207406Y-124582903D01*
X153190500Y-124520397D01*
X153190500Y-123040096D01*
X153210185Y-122973057D01*
X153226814Y-122952420D01*
X158810158Y-117369075D01*
X158871479Y-117335592D01*
X158936151Y-117338825D01*
X158950466Y-117343477D01*
X159152648Y-117375500D01*
X159152649Y-117375500D01*
X159357351Y-117375500D01*
X159357352Y-117375500D01*
X159559534Y-117343477D01*
X159754219Y-117280220D01*
X159936610Y-117187287D01*
X160029590Y-117119732D01*
X160102213Y-117066971D01*
X160102215Y-117066968D01*
X160102219Y-117066966D01*
X160246966Y-116922219D01*
X160246968Y-116922215D01*
X160246971Y-116922213D01*
X160367284Y-116756614D01*
X160367286Y-116756611D01*
X160367287Y-116756610D01*
X160414516Y-116663917D01*
X160462489Y-116613123D01*
X160530310Y-116596328D01*
X160596445Y-116618865D01*
X160635485Y-116663919D01*
X160682715Y-116756614D01*
X160803028Y-116922213D01*
X160947786Y-117066971D01*
X161102749Y-117179556D01*
X161113390Y-117187287D01*
X161229607Y-117246503D01*
X161295776Y-117280218D01*
X161295778Y-117280218D01*
X161295781Y-117280220D01*
X161400137Y-117314127D01*
X161490465Y-117343477D01*
X161591557Y-117359488D01*
X161692648Y-117375500D01*
X161692649Y-117375500D01*
X161897351Y-117375500D01*
X161897352Y-117375500D01*
X162099534Y-117343477D01*
X162294219Y-117280220D01*
X162476610Y-117187287D01*
X162569590Y-117119732D01*
X162642213Y-117066971D01*
X162642215Y-117066968D01*
X162642219Y-117066966D01*
X162786966Y-116922219D01*
X162786968Y-116922215D01*
X162786971Y-116922213D01*
X162907284Y-116756614D01*
X162907286Y-116756611D01*
X162907287Y-116756610D01*
X162954516Y-116663917D01*
X163002489Y-116613123D01*
X163070310Y-116596328D01*
X163136445Y-116618865D01*
X163175485Y-116663919D01*
X163222715Y-116756614D01*
X163343028Y-116922213D01*
X163487786Y-117066971D01*
X163642749Y-117179556D01*
X163653390Y-117187287D01*
X163769607Y-117246503D01*
X163835776Y-117280218D01*
X163835778Y-117280218D01*
X163835781Y-117280220D01*
X163940137Y-117314127D01*
X164030465Y-117343477D01*
X164131557Y-117359488D01*
X164232648Y-117375500D01*
X164232649Y-117375500D01*
X164437351Y-117375500D01*
X164437352Y-117375500D01*
X164639534Y-117343477D01*
X164834219Y-117280220D01*
X165016610Y-117187287D01*
X165109590Y-117119732D01*
X165182213Y-117066971D01*
X165182215Y-117066968D01*
X165182219Y-117066966D01*
X165326966Y-116922219D01*
X165326968Y-116922215D01*
X165326971Y-116922213D01*
X165447284Y-116756614D01*
X165447286Y-116756611D01*
X165447287Y-116756610D01*
X165494516Y-116663917D01*
X165542489Y-116613123D01*
X165610310Y-116596328D01*
X165676445Y-116618865D01*
X165715485Y-116663919D01*
X165762715Y-116756614D01*
X165883028Y-116922213D01*
X166027786Y-117066971D01*
X166182749Y-117179556D01*
X166193390Y-117187287D01*
X166309607Y-117246503D01*
X166375776Y-117280218D01*
X166375778Y-117280218D01*
X166375781Y-117280220D01*
X166480137Y-117314127D01*
X166570465Y-117343477D01*
X166671557Y-117359488D01*
X166772648Y-117375500D01*
X166772649Y-117375500D01*
X166977351Y-117375500D01*
X166977352Y-117375500D01*
X167179534Y-117343477D01*
X167374219Y-117280220D01*
X167556610Y-117187287D01*
X167649590Y-117119732D01*
X167722213Y-117066971D01*
X167722215Y-117066968D01*
X167722219Y-117066966D01*
X167866966Y-116922219D01*
X167866968Y-116922215D01*
X167866971Y-116922213D01*
X167919732Y-116849590D01*
X167987287Y-116756610D01*
X168080220Y-116574219D01*
X168143477Y-116379534D01*
X168175500Y-116177352D01*
X168175500Y-115972648D01*
X168143477Y-115770466D01*
X168142673Y-115767993D01*
X168080218Y-115575776D01*
X167987419Y-115393650D01*
X167987287Y-115393390D01*
X167979556Y-115382749D01*
X167866971Y-115227786D01*
X167722213Y-115083028D01*
X167556613Y-114962715D01*
X167556612Y-114962714D01*
X167556610Y-114962713D01*
X167499653Y-114933691D01*
X167374223Y-114869781D01*
X167179534Y-114806522D01*
X167004995Y-114778878D01*
X166977352Y-114774500D01*
X166772648Y-114774500D01*
X166748329Y-114778351D01*
X166570465Y-114806522D01*
X166375776Y-114869781D01*
X166193386Y-114962715D01*
X166027786Y-115083028D01*
X165883028Y-115227786D01*
X165762715Y-115393386D01*
X165715485Y-115486080D01*
X165667510Y-115536876D01*
X165599689Y-115553671D01*
X165533554Y-115531134D01*
X165494515Y-115486080D01*
X165447419Y-115393650D01*
X165447287Y-115393390D01*
X165439556Y-115382749D01*
X165326971Y-115227786D01*
X165182213Y-115083028D01*
X165016613Y-114962715D01*
X165016612Y-114962714D01*
X165016610Y-114962713D01*
X164959653Y-114933691D01*
X164834223Y-114869781D01*
X164639534Y-114806522D01*
X164464995Y-114778878D01*
X164437352Y-114774500D01*
X164232648Y-114774500D01*
X164208329Y-114778351D01*
X164030465Y-114806522D01*
X163835776Y-114869781D01*
X163653386Y-114962715D01*
X163487786Y-115083028D01*
X163343028Y-115227786D01*
X163222715Y-115393386D01*
X163175485Y-115486080D01*
X163127510Y-115536876D01*
X163059689Y-115553671D01*
X162993554Y-115531134D01*
X162954515Y-115486080D01*
X162907419Y-115393650D01*
X162907287Y-115393390D01*
X162899556Y-115382749D01*
X162786971Y-115227786D01*
X162642213Y-115083028D01*
X162476613Y-114962715D01*
X162476612Y-114962714D01*
X162476610Y-114962713D01*
X162419653Y-114933691D01*
X162294223Y-114869781D01*
X162099534Y-114806522D01*
X161924995Y-114778878D01*
X161897352Y-114774500D01*
X161692648Y-114774500D01*
X161668329Y-114778351D01*
X161490465Y-114806522D01*
X161295776Y-114869781D01*
X161113386Y-114962715D01*
X160947786Y-115083028D01*
X160803028Y-115227786D01*
X160682715Y-115393386D01*
X160635485Y-115486080D01*
X160587510Y-115536876D01*
X160519689Y-115553671D01*
X160453554Y-115531134D01*
X160414515Y-115486080D01*
X160367419Y-115393650D01*
X160367287Y-115393390D01*
X160359556Y-115382749D01*
X160246971Y-115227786D01*
X160102213Y-115083028D01*
X159936613Y-114962715D01*
X159936612Y-114962714D01*
X159936610Y-114962713D01*
X159879653Y-114933691D01*
X159754223Y-114869781D01*
X159559534Y-114806522D01*
X159384995Y-114778878D01*
X159357352Y-114774500D01*
X159152648Y-114774500D01*
X159128329Y-114778351D01*
X158950465Y-114806522D01*
X158755776Y-114869781D01*
X158573386Y-114962715D01*
X158407786Y-115083028D01*
X158263028Y-115227786D01*
X158142715Y-115393386D01*
X158095485Y-115486080D01*
X158047510Y-115536876D01*
X157979689Y-115553671D01*
X157913554Y-115531134D01*
X157874515Y-115486080D01*
X157827419Y-115393650D01*
X157827287Y-115393390D01*
X157819556Y-115382749D01*
X157706971Y-115227786D01*
X157562213Y-115083028D01*
X157396613Y-114962715D01*
X157396612Y-114962714D01*
X157396610Y-114962713D01*
X157339653Y-114933691D01*
X157214223Y-114869781D01*
X157019534Y-114806522D01*
X156844995Y-114778878D01*
X156817352Y-114774500D01*
X156612648Y-114774500D01*
X156588329Y-114778351D01*
X156410465Y-114806522D01*
X156215776Y-114869781D01*
X156033386Y-114962715D01*
X155867786Y-115083028D01*
X155723028Y-115227786D01*
X155602715Y-115393386D01*
X155555485Y-115486080D01*
X155507510Y-115536876D01*
X155439689Y-115553671D01*
X155373554Y-115531134D01*
X155334515Y-115486080D01*
X155287419Y-115393650D01*
X155287287Y-115393390D01*
X155279556Y-115382749D01*
X155166971Y-115227786D01*
X155022213Y-115083028D01*
X154856613Y-114962715D01*
X154856612Y-114962714D01*
X154856610Y-114962713D01*
X154799653Y-114933691D01*
X154674223Y-114869781D01*
X154479534Y-114806522D01*
X154304995Y-114778878D01*
X154277352Y-114774500D01*
X154072648Y-114774500D01*
X154048329Y-114778351D01*
X153870465Y-114806522D01*
X153675776Y-114869781D01*
X153493386Y-114962715D01*
X153327786Y-115083028D01*
X153183028Y-115227786D01*
X153062715Y-115393386D01*
X153015485Y-115486080D01*
X152967510Y-115536876D01*
X152899689Y-115553671D01*
X152833554Y-115531134D01*
X152794515Y-115486080D01*
X152747419Y-115393650D01*
X152747287Y-115393390D01*
X152739556Y-115382749D01*
X152626971Y-115227786D01*
X152482213Y-115083028D01*
X152316613Y-114962715D01*
X152316612Y-114962714D01*
X152316610Y-114962713D01*
X152259653Y-114933691D01*
X152134223Y-114869781D01*
X151939534Y-114806522D01*
X151764995Y-114778878D01*
X151737352Y-114774500D01*
X151532648Y-114774500D01*
X151508329Y-114778351D01*
X151330465Y-114806522D01*
X151135776Y-114869781D01*
X150953386Y-114962715D01*
X150787786Y-115083028D01*
X150643028Y-115227786D01*
X150522715Y-115393386D01*
X150475485Y-115486080D01*
X150427510Y-115536876D01*
X150359689Y-115553671D01*
X150293554Y-115531134D01*
X150254515Y-115486080D01*
X150207419Y-115393650D01*
X150207287Y-115393390D01*
X150199556Y-115382749D01*
X150086971Y-115227786D01*
X149942213Y-115083028D01*
X149776613Y-114962715D01*
X149776612Y-114962714D01*
X149776610Y-114962713D01*
X149719653Y-114933691D01*
X149594223Y-114869781D01*
X149399534Y-114806522D01*
X149224995Y-114778878D01*
X149197352Y-114774500D01*
X148992648Y-114774500D01*
X148968329Y-114778351D01*
X148790465Y-114806522D01*
X148595776Y-114869781D01*
X148413386Y-114962715D01*
X148247786Y-115083028D01*
X148103028Y-115227786D01*
X147982715Y-115393386D01*
X147889781Y-115575776D01*
X147826522Y-115770465D01*
X147794500Y-115972648D01*
X147794500Y-116177351D01*
X147826522Y-116379534D01*
X147889781Y-116574223D01*
X147982715Y-116756613D01*
X148103028Y-116922213D01*
X148247786Y-117066971D01*
X148402749Y-117179556D01*
X148413390Y-117187287D01*
X148529607Y-117246503D01*
X148595776Y-117280218D01*
X148595778Y-117280218D01*
X148595781Y-117280220D01*
X148700137Y-117314127D01*
X148790465Y-117343477D01*
X148891557Y-117359488D01*
X148992648Y-117375500D01*
X148992649Y-117375500D01*
X149197351Y-117375500D01*
X149197352Y-117375500D01*
X149399534Y-117343477D01*
X149594219Y-117280220D01*
X149776610Y-117187287D01*
X149869590Y-117119732D01*
X149942213Y-117066971D01*
X149942215Y-117066968D01*
X149942219Y-117066966D01*
X150086966Y-116922219D01*
X150086968Y-116922215D01*
X150086971Y-116922213D01*
X150207284Y-116756614D01*
X150207286Y-116756611D01*
X150207287Y-116756610D01*
X150254516Y-116663917D01*
X150302489Y-116613123D01*
X150370310Y-116596328D01*
X150436445Y-116618865D01*
X150475485Y-116663919D01*
X150522715Y-116756614D01*
X150643028Y-116922213D01*
X150787786Y-117066971D01*
X150942749Y-117179556D01*
X150953390Y-117187287D01*
X151069607Y-117246503D01*
X151135776Y-117280218D01*
X151135778Y-117280218D01*
X151135781Y-117280220D01*
X151240137Y-117314127D01*
X151330465Y-117343477D01*
X151431557Y-117359488D01*
X151532648Y-117375500D01*
X151532649Y-117375500D01*
X151725902Y-117375500D01*
X151792941Y-117395185D01*
X151838696Y-117447989D01*
X151848640Y-117517147D01*
X151819615Y-117580703D01*
X151813583Y-117587181D01*
X146367584Y-123033181D01*
X146306261Y-123066666D01*
X146279903Y-123069500D01*
X139063612Y-123069500D01*
X138996573Y-123049815D01*
X138950818Y-122997011D01*
X138940874Y-122927853D01*
X138969899Y-122864297D01*
X139014634Y-122831582D01*
X139022857Y-122828046D01*
X139091785Y-122809577D01*
X139161200Y-122769500D01*
X139228716Y-122730520D01*
X139340520Y-122618716D01*
X139340520Y-122618714D01*
X139350724Y-122608511D01*
X139350727Y-122608506D01*
X144590159Y-117369075D01*
X144651480Y-117335592D01*
X144716154Y-117338826D01*
X144730466Y-117343477D01*
X144932648Y-117375500D01*
X144932649Y-117375500D01*
X145137351Y-117375500D01*
X145137352Y-117375500D01*
X145339534Y-117343477D01*
X145534219Y-117280220D01*
X145716610Y-117187287D01*
X145809590Y-117119732D01*
X145882213Y-117066971D01*
X145882215Y-117066968D01*
X145882219Y-117066966D01*
X146026966Y-116922219D01*
X146026968Y-116922215D01*
X146026971Y-116922213D01*
X146079732Y-116849590D01*
X146147287Y-116756610D01*
X146240220Y-116574219D01*
X146303477Y-116379534D01*
X146335500Y-116177352D01*
X146335500Y-115972648D01*
X146303477Y-115770466D01*
X146302673Y-115767993D01*
X146240218Y-115575776D01*
X146147419Y-115393650D01*
X146147287Y-115393390D01*
X146139556Y-115382749D01*
X146026971Y-115227786D01*
X145882213Y-115083028D01*
X145716613Y-114962715D01*
X145716612Y-114962714D01*
X145716610Y-114962713D01*
X145659653Y-114933691D01*
X145534223Y-114869781D01*
X145339534Y-114806522D01*
X145164995Y-114778878D01*
X145137352Y-114774500D01*
X144932648Y-114774500D01*
X144908329Y-114778351D01*
X144730465Y-114806522D01*
X144535776Y-114869781D01*
X144353386Y-114962715D01*
X144187786Y-115083028D01*
X144043028Y-115227786D01*
X143922715Y-115393386D01*
X143875485Y-115486080D01*
X143827510Y-115536876D01*
X143759689Y-115553671D01*
X143693554Y-115531134D01*
X143654515Y-115486080D01*
X143607419Y-115393650D01*
X143607287Y-115393390D01*
X143599556Y-115382749D01*
X143486971Y-115227786D01*
X143342213Y-115083028D01*
X143176613Y-114962715D01*
X143176612Y-114962714D01*
X143176610Y-114962713D01*
X143119653Y-114933691D01*
X142994223Y-114869781D01*
X142799534Y-114806522D01*
X142624995Y-114778878D01*
X142597352Y-114774500D01*
X142392648Y-114774500D01*
X142368329Y-114778351D01*
X142190465Y-114806522D01*
X141995776Y-114869781D01*
X141813386Y-114962715D01*
X141647786Y-115083028D01*
X141503028Y-115227786D01*
X141382715Y-115393386D01*
X141335485Y-115486080D01*
X141287510Y-115536876D01*
X141219689Y-115553671D01*
X141153554Y-115531134D01*
X141114515Y-115486080D01*
X141067419Y-115393650D01*
X141067287Y-115393390D01*
X141059556Y-115382749D01*
X140946971Y-115227786D01*
X140802213Y-115083028D01*
X140636613Y-114962715D01*
X140636612Y-114962714D01*
X140636610Y-114962713D01*
X140579653Y-114933691D01*
X140454223Y-114869781D01*
X140259534Y-114806522D01*
X140084995Y-114778878D01*
X140057352Y-114774500D01*
X139852648Y-114774500D01*
X139828329Y-114778351D01*
X139650465Y-114806522D01*
X139455776Y-114869781D01*
X139273386Y-114962715D01*
X139107786Y-115083028D01*
X138963028Y-115227786D01*
X138842715Y-115393386D01*
X138795485Y-115486080D01*
X138747510Y-115536876D01*
X138679689Y-115553671D01*
X138613554Y-115531134D01*
X138574515Y-115486080D01*
X138527419Y-115393650D01*
X138527287Y-115393390D01*
X138519556Y-115382749D01*
X138406971Y-115227786D01*
X138262213Y-115083028D01*
X138096613Y-114962715D01*
X138096612Y-114962714D01*
X138096610Y-114962713D01*
X138039653Y-114933691D01*
X137914223Y-114869781D01*
X137719534Y-114806522D01*
X137544995Y-114778878D01*
X137517352Y-114774500D01*
X137312648Y-114774500D01*
X137288329Y-114778351D01*
X137110465Y-114806522D01*
X136915776Y-114869781D01*
X136733386Y-114962715D01*
X136567786Y-115083028D01*
X136423028Y-115227786D01*
X136302715Y-115393386D01*
X136255485Y-115486080D01*
X136207510Y-115536876D01*
X136139689Y-115553671D01*
X136073554Y-115531134D01*
X136034515Y-115486080D01*
X135987419Y-115393650D01*
X135987287Y-115393390D01*
X135979556Y-115382749D01*
X135866971Y-115227786D01*
X135722213Y-115083028D01*
X135556613Y-114962715D01*
X135556612Y-114962714D01*
X135556610Y-114962713D01*
X135499653Y-114933691D01*
X135374223Y-114869781D01*
X135179534Y-114806522D01*
X135004995Y-114778878D01*
X134977352Y-114774500D01*
X134772648Y-114774500D01*
X134748329Y-114778351D01*
X134570465Y-114806522D01*
X134375776Y-114869781D01*
X134193386Y-114962715D01*
X134027786Y-115083028D01*
X133883028Y-115227786D01*
X133762715Y-115393386D01*
X133715485Y-115486080D01*
X133667510Y-115536876D01*
X133599689Y-115553671D01*
X133533554Y-115531134D01*
X133494515Y-115486080D01*
X133447419Y-115393650D01*
X133447287Y-115393390D01*
X133439556Y-115382749D01*
X133326971Y-115227786D01*
X133182213Y-115083028D01*
X133016613Y-114962715D01*
X133016612Y-114962714D01*
X133016610Y-114962713D01*
X132959653Y-114933691D01*
X132834223Y-114869781D01*
X132639534Y-114806522D01*
X132464995Y-114778878D01*
X132437352Y-114774500D01*
X132232648Y-114774500D01*
X132208329Y-114778351D01*
X132030465Y-114806522D01*
X131835776Y-114869781D01*
X131653386Y-114962715D01*
X131487786Y-115083028D01*
X131343028Y-115227786D01*
X131222713Y-115393388D01*
X131175203Y-115486630D01*
X131127228Y-115537426D01*
X131059407Y-115554220D01*
X130993272Y-115531682D01*
X130954234Y-115486628D01*
X130906861Y-115393652D01*
X130786582Y-115228105D01*
X130786582Y-115228104D01*
X130641895Y-115083417D01*
X130476349Y-114963140D01*
X130294029Y-114870244D01*
X130099413Y-114807009D01*
X130045000Y-114798390D01*
X130045000Y-115641988D01*
X129987993Y-115609075D01*
X129860826Y-115575000D01*
X129729174Y-115575000D01*
X129602007Y-115609075D01*
X129545000Y-115641988D01*
X129545000Y-114798390D01*
X129490586Y-114807009D01*
X129295970Y-114870244D01*
X129113650Y-114963140D01*
X128948105Y-115083417D01*
X128948104Y-115083417D01*
X128803417Y-115228104D01*
X128803417Y-115228105D01*
X128683140Y-115393650D01*
X128635765Y-115486629D01*
X128587790Y-115537425D01*
X128519969Y-115554220D01*
X128453834Y-115531682D01*
X128414795Y-115486629D01*
X128367419Y-115393650D01*
X128367287Y-115393390D01*
X128359556Y-115382749D01*
X128246971Y-115227786D01*
X128102213Y-115083028D01*
X127936613Y-114962715D01*
X127936612Y-114962714D01*
X127936610Y-114962713D01*
X127879653Y-114933691D01*
X127754223Y-114869781D01*
X127559534Y-114806522D01*
X127384995Y-114778878D01*
X127357352Y-114774500D01*
X127152648Y-114774500D01*
X127128329Y-114778351D01*
X126950465Y-114806522D01*
X126755776Y-114869781D01*
X126573386Y-114962715D01*
X126407786Y-115083028D01*
X126263028Y-115227786D01*
X126142715Y-115393386D01*
X126095485Y-115486080D01*
X126047510Y-115536876D01*
X125979689Y-115553671D01*
X125913554Y-115531134D01*
X125874515Y-115486080D01*
X125827419Y-115393650D01*
X125827287Y-115393390D01*
X125819556Y-115382749D01*
X125706971Y-115227786D01*
X125562213Y-115083028D01*
X125396613Y-114962715D01*
X125396612Y-114962714D01*
X125396610Y-114962713D01*
X125339653Y-114933691D01*
X125214223Y-114869781D01*
X125019534Y-114806522D01*
X124844995Y-114778878D01*
X124817352Y-114774500D01*
X124612648Y-114774500D01*
X124588329Y-114778351D01*
X124410465Y-114806522D01*
X124215776Y-114869781D01*
X124033386Y-114962715D01*
X123867786Y-115083028D01*
X123723028Y-115227786D01*
X123602715Y-115393386D01*
X123555485Y-115486080D01*
X123507510Y-115536876D01*
X123439689Y-115553671D01*
X123373554Y-115531134D01*
X123334515Y-115486080D01*
X123287419Y-115393650D01*
X123287287Y-115393390D01*
X123279556Y-115382749D01*
X123166971Y-115227786D01*
X123022213Y-115083028D01*
X122856613Y-114962715D01*
X122856612Y-114962714D01*
X122856610Y-114962713D01*
X122799653Y-114933691D01*
X122674223Y-114869781D01*
X122479534Y-114806522D01*
X122304995Y-114778878D01*
X122277352Y-114774500D01*
X122072648Y-114774500D01*
X122048329Y-114778351D01*
X121870465Y-114806522D01*
X121675776Y-114869781D01*
X121493386Y-114962715D01*
X121327786Y-115083028D01*
X121183028Y-115227786D01*
X121062715Y-115393386D01*
X120969781Y-115575776D01*
X120906522Y-115770465D01*
X120874500Y-115972648D01*
X120874500Y-116177351D01*
X120906522Y-116379534D01*
X120969781Y-116574223D01*
X121062715Y-116756613D01*
X121183028Y-116922213D01*
X121327786Y-117066971D01*
X121482749Y-117179556D01*
X121493390Y-117187287D01*
X121609607Y-117246503D01*
X121675776Y-117280218D01*
X121675778Y-117280218D01*
X121675781Y-117280220D01*
X121780137Y-117314127D01*
X121870465Y-117343477D01*
X121971557Y-117359488D01*
X122072648Y-117375500D01*
X122072649Y-117375500D01*
X122277351Y-117375500D01*
X122277352Y-117375500D01*
X122479534Y-117343477D01*
X122674219Y-117280220D01*
X122856610Y-117187287D01*
X122949590Y-117119732D01*
X123022213Y-117066971D01*
X123022215Y-117066968D01*
X123022219Y-117066966D01*
X123166966Y-116922219D01*
X123166968Y-116922215D01*
X123166971Y-116922213D01*
X123287284Y-116756614D01*
X123287286Y-116756611D01*
X123287287Y-116756610D01*
X123334516Y-116663917D01*
X123382489Y-116613123D01*
X123450310Y-116596328D01*
X123516445Y-116618865D01*
X123555485Y-116663919D01*
X123602715Y-116756614D01*
X123723028Y-116922213D01*
X123867786Y-117066971D01*
X124022749Y-117179556D01*
X124033390Y-117187287D01*
X124149607Y-117246503D01*
X124215776Y-117280218D01*
X124215778Y-117280218D01*
X124215781Y-117280220D01*
X124320137Y-117314127D01*
X124410465Y-117343477D01*
X124511557Y-117359488D01*
X124612648Y-117375500D01*
X124612649Y-117375500D01*
X124817351Y-117375500D01*
X124817352Y-117375500D01*
X125019534Y-117343477D01*
X125214219Y-117280220D01*
X125396610Y-117187287D01*
X125489590Y-117119732D01*
X125562213Y-117066971D01*
X125562215Y-117066968D01*
X125562219Y-117066966D01*
X125706966Y-116922219D01*
X125706968Y-116922215D01*
X125706971Y-116922213D01*
X125827284Y-116756614D01*
X125827286Y-116756611D01*
X125827287Y-116756610D01*
X125874516Y-116663917D01*
X125922489Y-116613123D01*
X125990310Y-116596328D01*
X126056445Y-116618865D01*
X126095485Y-116663919D01*
X126142715Y-116756614D01*
X126263028Y-116922213D01*
X126407786Y-117066971D01*
X126562749Y-117179556D01*
X126573390Y-117187287D01*
X126689607Y-117246503D01*
X126755776Y-117280218D01*
X126755778Y-117280218D01*
X126755781Y-117280220D01*
X126860137Y-117314127D01*
X126950465Y-117343477D01*
X127051557Y-117359488D01*
X127152648Y-117375500D01*
X127152649Y-117375500D01*
X127357351Y-117375500D01*
X127357352Y-117375500D01*
X127559534Y-117343477D01*
X127754219Y-117280220D01*
X127936610Y-117187287D01*
X128029590Y-117119732D01*
X128102213Y-117066971D01*
X128102215Y-117066968D01*
X128102219Y-117066966D01*
X128246966Y-116922219D01*
X128246968Y-116922215D01*
X128246971Y-116922213D01*
X128367284Y-116756614D01*
X128367286Y-116756611D01*
X128367287Y-116756610D01*
X128414795Y-116663369D01*
X128462770Y-116612574D01*
X128530591Y-116595779D01*
X128596725Y-116618316D01*
X128635765Y-116663370D01*
X128683140Y-116756349D01*
X128803417Y-116921894D01*
X128803417Y-116921895D01*
X128948104Y-117066582D01*
X129113650Y-117186859D01*
X129295968Y-117279754D01*
X129490578Y-117342988D01*
X129545000Y-117351607D01*
X129545000Y-116508012D01*
X129602007Y-116540925D01*
X129729174Y-116575000D01*
X129860826Y-116575000D01*
X129987993Y-116540925D01*
X130045000Y-116508012D01*
X130045000Y-117351606D01*
X130099421Y-117342988D01*
X130294031Y-117279754D01*
X130476349Y-117186859D01*
X130641894Y-117066582D01*
X130641895Y-117066582D01*
X130786582Y-116921895D01*
X130786582Y-116921894D01*
X130906861Y-116756347D01*
X130954234Y-116663371D01*
X131002208Y-116612575D01*
X131070028Y-116595779D01*
X131136164Y-116618316D01*
X131175203Y-116663369D01*
X131222713Y-116756611D01*
X131343028Y-116922213D01*
X131487786Y-117066971D01*
X131642749Y-117179556D01*
X131653390Y-117187287D01*
X131769607Y-117246503D01*
X131835776Y-117280218D01*
X131835778Y-117280218D01*
X131835781Y-117280220D01*
X131940137Y-117314127D01*
X132030465Y-117343477D01*
X132131557Y-117359488D01*
X132232648Y-117375500D01*
X132232649Y-117375500D01*
X132437351Y-117375500D01*
X132437352Y-117375500D01*
X132639534Y-117343477D01*
X132834219Y-117280220D01*
X133016610Y-117187287D01*
X133109590Y-117119732D01*
X133182213Y-117066971D01*
X133182215Y-117066968D01*
X133182219Y-117066966D01*
X133326966Y-116922219D01*
X133326968Y-116922215D01*
X133326971Y-116922213D01*
X133447284Y-116756614D01*
X133447286Y-116756611D01*
X133447287Y-116756610D01*
X133494516Y-116663917D01*
X133542489Y-116613123D01*
X133610310Y-116596328D01*
X133676445Y-116618865D01*
X133715485Y-116663919D01*
X133762715Y-116756614D01*
X133883028Y-116922213D01*
X134027786Y-117066971D01*
X134182749Y-117179556D01*
X134193390Y-117187287D01*
X134309607Y-117246503D01*
X134375776Y-117280218D01*
X134375778Y-117280218D01*
X134375781Y-117280220D01*
X134480137Y-117314127D01*
X134570465Y-117343477D01*
X134671557Y-117359488D01*
X134772648Y-117375500D01*
X134772649Y-117375500D01*
X134977351Y-117375500D01*
X134977352Y-117375500D01*
X135179534Y-117343477D01*
X135374219Y-117280220D01*
X135556610Y-117187287D01*
X135649590Y-117119732D01*
X135722213Y-117066971D01*
X135722215Y-117066968D01*
X135722219Y-117066966D01*
X135866966Y-116922219D01*
X135866968Y-116922215D01*
X135866971Y-116922213D01*
X135987284Y-116756614D01*
X135987286Y-116756611D01*
X135987287Y-116756610D01*
X136034516Y-116663917D01*
X136082489Y-116613123D01*
X136150310Y-116596328D01*
X136216445Y-116618865D01*
X136255485Y-116663919D01*
X136302715Y-116756614D01*
X136423028Y-116922213D01*
X136567786Y-117066971D01*
X136722749Y-117179556D01*
X136733390Y-117187287D01*
X136849607Y-117246503D01*
X136915776Y-117280218D01*
X136915778Y-117280218D01*
X136915781Y-117280220D01*
X137020137Y-117314127D01*
X137110465Y-117343477D01*
X137211557Y-117359488D01*
X137312648Y-117375500D01*
X137312649Y-117375500D01*
X137505902Y-117375500D01*
X137572941Y-117395185D01*
X137618696Y-117447989D01*
X137628640Y-117517147D01*
X137599615Y-117580703D01*
X137593583Y-117587181D01*
X135067584Y-120113181D01*
X135006261Y-120146666D01*
X134979903Y-120149500D01*
X132586669Y-120149500D01*
X132586653Y-120149499D01*
X132579057Y-120149499D01*
X132420943Y-120149499D01*
X132313587Y-120178265D01*
X132268210Y-120190424D01*
X132268209Y-120190425D01*
X132218096Y-120219359D01*
X132218095Y-120219360D01*
X132174689Y-120244420D01*
X132131285Y-120269479D01*
X132131282Y-120269481D01*
X132019478Y-120381286D01*
X127287584Y-125113181D01*
X127226261Y-125146666D01*
X127199903Y-125149500D01*
X123059602Y-125149500D01*
X122992563Y-125129815D01*
X122949117Y-125081795D01*
X122942284Y-125068385D01*
X122821971Y-124902786D01*
X122677213Y-124758028D01*
X122511613Y-124637715D01*
X122511612Y-124637714D01*
X122511610Y-124637713D01*
X122453111Y-124607906D01*
X122329223Y-124544781D01*
X122134534Y-124481522D01*
X121948799Y-124452105D01*
X121932352Y-124449500D01*
X121727648Y-124449500D01*
X121711201Y-124452105D01*
X121525465Y-124481522D01*
X121330776Y-124544781D01*
X121148386Y-124637715D01*
X120982786Y-124758028D01*
X120838028Y-124902786D01*
X120717715Y-125068386D01*
X120624781Y-125250776D01*
X120561522Y-125445465D01*
X120529500Y-125647648D01*
X120529500Y-125852351D01*
X120561522Y-126054534D01*
X120624781Y-126249223D01*
X120676385Y-126350500D01*
X120710882Y-126418204D01*
X120717715Y-126431613D01*
X120838028Y-126597213D01*
X120982786Y-126741971D01*
X121137749Y-126854556D01*
X121148390Y-126862287D01*
X121248603Y-126913348D01*
X121330776Y-126955218D01*
X121330778Y-126955218D01*
X121330781Y-126955220D01*
X121435137Y-126989127D01*
X121525465Y-127018477D01*
X121626557Y-127034488D01*
X121727648Y-127050500D01*
X121727649Y-127050500D01*
X121932351Y-127050500D01*
X121932352Y-127050500D01*
X122134534Y-127018477D01*
X122329219Y-126955220D01*
X122511610Y-126862287D01*
X122641821Y-126767684D01*
X122677213Y-126741971D01*
X122677215Y-126741968D01*
X122677219Y-126741966D01*
X122821966Y-126597219D01*
X122821968Y-126597215D01*
X122821971Y-126597213D01*
X122942284Y-126431614D01*
X122942285Y-126431613D01*
X122942287Y-126431610D01*
X122949117Y-126418204D01*
X122997091Y-126367409D01*
X123059602Y-126350500D01*
X127413331Y-126350500D01*
X127413347Y-126350501D01*
X127420943Y-126350501D01*
X127579054Y-126350501D01*
X127579057Y-126350501D01*
X127731785Y-126309577D01*
X127781904Y-126280639D01*
X127868716Y-126230520D01*
X127980520Y-126118716D01*
X127980520Y-126118714D01*
X127990728Y-126108507D01*
X127990729Y-126108504D01*
X132712416Y-121386819D01*
X132773739Y-121353334D01*
X132800097Y-121350500D01*
X135193331Y-121350500D01*
X135193347Y-121350501D01*
X135200943Y-121350501D01*
X135359054Y-121350501D01*
X135359057Y-121350501D01*
X135511785Y-121309577D01*
X135561904Y-121280639D01*
X135648716Y-121230520D01*
X135760520Y-121118716D01*
X135760520Y-121118714D01*
X135770728Y-121108507D01*
X135770730Y-121108504D01*
X139510158Y-117369075D01*
X139571479Y-117335592D01*
X139636151Y-117338825D01*
X139650466Y-117343477D01*
X139852648Y-117375500D01*
X139852649Y-117375500D01*
X140057351Y-117375500D01*
X140057352Y-117375500D01*
X140259534Y-117343477D01*
X140454219Y-117280220D01*
X140636610Y-117187287D01*
X140729590Y-117119732D01*
X140802213Y-117066971D01*
X140802215Y-117066968D01*
X140802219Y-117066966D01*
X140946966Y-116922219D01*
X140946968Y-116922215D01*
X140946971Y-116922213D01*
X141067284Y-116756614D01*
X141067286Y-116756611D01*
X141067287Y-116756610D01*
X141114516Y-116663917D01*
X141162489Y-116613123D01*
X141230310Y-116596328D01*
X141296445Y-116618865D01*
X141335485Y-116663919D01*
X141382715Y-116756614D01*
X141503028Y-116922213D01*
X141647786Y-117066971D01*
X141802749Y-117179556D01*
X141813390Y-117187287D01*
X141929607Y-117246503D01*
X141995776Y-117280218D01*
X141995778Y-117280218D01*
X141995781Y-117280220D01*
X142100137Y-117314127D01*
X142190465Y-117343477D01*
X142291557Y-117359488D01*
X142392648Y-117375500D01*
X142392649Y-117375500D01*
X142585901Y-117375500D01*
X142652940Y-117395185D01*
X142698695Y-117447989D01*
X142708639Y-117517147D01*
X142679614Y-117580703D01*
X142673582Y-117587181D01*
X138647584Y-121613181D01*
X138586261Y-121646666D01*
X138559903Y-121649500D01*
X133579057Y-121649500D01*
X133420943Y-121649500D01*
X133268215Y-121690423D01*
X133268214Y-121690423D01*
X133268212Y-121690424D01*
X133268209Y-121690425D01*
X133218096Y-121719359D01*
X133218095Y-121719360D01*
X133174689Y-121744420D01*
X133131285Y-121769479D01*
X133131282Y-121769481D01*
X133019480Y-121881284D01*
X133019478Y-121881286D01*
X129260987Y-125639778D01*
X125537584Y-129363181D01*
X125476261Y-129396666D01*
X125449903Y-129399500D01*
X99300098Y-129399500D01*
X99233059Y-129379815D01*
X99212417Y-129363181D01*
X96636819Y-126787583D01*
X96603334Y-126726260D01*
X96600500Y-126699902D01*
X96600500Y-124802155D01*
X103325000Y-124802155D01*
X103325000Y-125500000D01*
X104349722Y-125500000D01*
X104305667Y-125576306D01*
X104275000Y-125690756D01*
X104275000Y-125809244D01*
X104305667Y-125923694D01*
X104349722Y-126000000D01*
X103325000Y-126000000D01*
X103325000Y-126697844D01*
X103331401Y-126757372D01*
X103331403Y-126757379D01*
X103381645Y-126892086D01*
X103381649Y-126892093D01*
X103467809Y-127007187D01*
X103467812Y-127007190D01*
X103582906Y-127093350D01*
X103582913Y-127093354D01*
X103717620Y-127143596D01*
X103717627Y-127143598D01*
X103777155Y-127149999D01*
X103777172Y-127150000D01*
X104475000Y-127150000D01*
X104475000Y-126125277D01*
X104551306Y-126169333D01*
X104665756Y-126200000D01*
X104784244Y-126200000D01*
X104898694Y-126169333D01*
X104975000Y-126125277D01*
X104975000Y-127150000D01*
X105672828Y-127150000D01*
X105672844Y-127149999D01*
X105732372Y-127143598D01*
X105732379Y-127143596D01*
X105867086Y-127093354D01*
X105867093Y-127093350D01*
X105982187Y-127007190D01*
X105982190Y-127007187D01*
X106068350Y-126892093D01*
X106068354Y-126892086D01*
X106098213Y-126812031D01*
X106140084Y-126756097D01*
X106205548Y-126731680D01*
X106273821Y-126746531D01*
X106302076Y-126767683D01*
X106352636Y-126818243D01*
X106352641Y-126818247D01*
X106483513Y-126913330D01*
X106530978Y-126947815D01*
X106647501Y-127007187D01*
X106727393Y-127047895D01*
X106727396Y-127047896D01*
X106823293Y-127079054D01*
X106937049Y-127116015D01*
X107154778Y-127150500D01*
X107154779Y-127150500D01*
X107375221Y-127150500D01*
X107375222Y-127150500D01*
X107592951Y-127116015D01*
X107802606Y-127047895D01*
X107999022Y-126947815D01*
X108177365Y-126818242D01*
X108333242Y-126662365D01*
X108462815Y-126484022D01*
X108496352Y-126418204D01*
X108544326Y-126367409D01*
X108606836Y-126350500D01*
X110440398Y-126350500D01*
X110507437Y-126370185D01*
X110550883Y-126418205D01*
X110557715Y-126431614D01*
X110678028Y-126597213D01*
X110822786Y-126741971D01*
X110977749Y-126854556D01*
X110988390Y-126862287D01*
X111088603Y-126913348D01*
X111170776Y-126955218D01*
X111170778Y-126955218D01*
X111170781Y-126955220D01*
X111275137Y-126989127D01*
X111365465Y-127018477D01*
X111466557Y-127034488D01*
X111567648Y-127050500D01*
X111567649Y-127050500D01*
X111772351Y-127050500D01*
X111772352Y-127050500D01*
X111974534Y-127018477D01*
X112169219Y-126955220D01*
X112351610Y-126862287D01*
X112481821Y-126767684D01*
X112517213Y-126741971D01*
X112517215Y-126741968D01*
X112517219Y-126741966D01*
X112661966Y-126597219D01*
X112661968Y-126597215D01*
X112661971Y-126597213D01*
X112744207Y-126484023D01*
X112782287Y-126431610D01*
X112875220Y-126249219D01*
X112938477Y-126054534D01*
X112970500Y-125852352D01*
X112970500Y-125647648D01*
X112938477Y-125445465D01*
X112909127Y-125355137D01*
X112875220Y-125250781D01*
X112875218Y-125250778D01*
X112875218Y-125250776D01*
X112841503Y-125184607D01*
X112782287Y-125068390D01*
X112744208Y-125015978D01*
X112661971Y-124902786D01*
X112517213Y-124758028D01*
X112351613Y-124637715D01*
X112351612Y-124637714D01*
X112351610Y-124637713D01*
X112293111Y-124607906D01*
X112169223Y-124544781D01*
X111974534Y-124481522D01*
X111788799Y-124452105D01*
X111772352Y-124449500D01*
X111567648Y-124449500D01*
X111551201Y-124452105D01*
X111365465Y-124481522D01*
X111170776Y-124544781D01*
X110988386Y-124637715D01*
X110822786Y-124758028D01*
X110678028Y-124902786D01*
X110557715Y-125068385D01*
X110550883Y-125081795D01*
X110502909Y-125132591D01*
X110440398Y-125149500D01*
X108606836Y-125149500D01*
X108539797Y-125129815D01*
X108496352Y-125081796D01*
X108462814Y-125015976D01*
X108333247Y-124837641D01*
X108333243Y-124837636D01*
X108177363Y-124681756D01*
X108177358Y-124681752D01*
X107999025Y-124552187D01*
X107999024Y-124552186D01*
X107999022Y-124552185D01*
X107930386Y-124517213D01*
X107802606Y-124452104D01*
X107802603Y-124452103D01*
X107592952Y-124383985D01*
X107484086Y-124366742D01*
X107375222Y-124349500D01*
X107154778Y-124349500D01*
X107082201Y-124360995D01*
X106937047Y-124383985D01*
X106727396Y-124452103D01*
X106727393Y-124452104D01*
X106530974Y-124552187D01*
X106352641Y-124681752D01*
X106352636Y-124681756D01*
X106302075Y-124732317D01*
X106240752Y-124765801D01*
X106171060Y-124760816D01*
X106115127Y-124718945D01*
X106098213Y-124687968D01*
X106068354Y-124607913D01*
X106068350Y-124607906D01*
X105982190Y-124492812D01*
X105982187Y-124492809D01*
X105867093Y-124406649D01*
X105867086Y-124406645D01*
X105732379Y-124356403D01*
X105732372Y-124356401D01*
X105672844Y-124350000D01*
X104975000Y-124350000D01*
X104975000Y-125374722D01*
X104898694Y-125330667D01*
X104784244Y-125300000D01*
X104665756Y-125300000D01*
X104551306Y-125330667D01*
X104475000Y-125374722D01*
X104475000Y-124350000D01*
X103777155Y-124350000D01*
X103717627Y-124356401D01*
X103717620Y-124356403D01*
X103582913Y-124406645D01*
X103582906Y-124406649D01*
X103467812Y-124492809D01*
X103467809Y-124492812D01*
X103381649Y-124607906D01*
X103381645Y-124607913D01*
X103331403Y-124742620D01*
X103331401Y-124742627D01*
X103325000Y-124802155D01*
X96600500Y-124802155D01*
X96600500Y-64550097D01*
X96620185Y-64483058D01*
X96636819Y-64462416D01*
X104462416Y-56636819D01*
X104523739Y-56603334D01*
X104550097Y-56600500D01*
X119173519Y-56600500D01*
X119240558Y-56620185D01*
X119284004Y-56668205D01*
X119344951Y-56787819D01*
X119469890Y-56959786D01*
X119620213Y-57110109D01*
X119792179Y-57235048D01*
X119792181Y-57235049D01*
X119792184Y-57235051D01*
X119981588Y-57331557D01*
X120183757Y-57397246D01*
X120393713Y-57430500D01*
X120393714Y-57430500D01*
X120606286Y-57430500D01*
X120606287Y-57430500D01*
X120816243Y-57397246D01*
X121018412Y-57331557D01*
X121207816Y-57235051D01*
X121229789Y-57219086D01*
X121379786Y-57110109D01*
X121379788Y-57110106D01*
X121379792Y-57110104D01*
X121530104Y-56959792D01*
X121530106Y-56959788D01*
X121530109Y-56959786D01*
X121655048Y-56787820D01*
X121655049Y-56787819D01*
X121655051Y-56787816D01*
X121751557Y-56598412D01*
X121817246Y-56396243D01*
X121850500Y-56186287D01*
X121850500Y-55973713D01*
X121817246Y-55763757D01*
X121751557Y-55561588D01*
X121655051Y-55372184D01*
X121655049Y-55372181D01*
X121655048Y-55372179D01*
X121530109Y-55200213D01*
X121379786Y-55049890D01*
X121207817Y-54924949D01*
X121198504Y-54920204D01*
X121147707Y-54872230D01*
X121130912Y-54804409D01*
X121153449Y-54738274D01*
X121198507Y-54699232D01*
X121207555Y-54694622D01*
X121261716Y-54655270D01*
X121261717Y-54655270D01*
X120629408Y-54022962D01*
X120692993Y-54005925D01*
X120807007Y-53940099D01*
X120900099Y-53847007D01*
X120965925Y-53732993D01*
X120982962Y-53669408D01*
X121615270Y-54301717D01*
X121615270Y-54301716D01*
X121654622Y-54247554D01*
X121751095Y-54058217D01*
X121816757Y-53856130D01*
X121816757Y-53856127D01*
X121850000Y-53646246D01*
X121850000Y-53433753D01*
X121816757Y-53223872D01*
X121816757Y-53223869D01*
X121751095Y-53021782D01*
X121654624Y-52832449D01*
X121615270Y-52778282D01*
X121615269Y-52778282D01*
X120982962Y-53410590D01*
X120965925Y-53347007D01*
X120900099Y-53232993D01*
X120807007Y-53139901D01*
X120692993Y-53074075D01*
X120629409Y-53057037D01*
X121299627Y-52386818D01*
X121360950Y-52353333D01*
X121387307Y-52350499D01*
X121397872Y-52350499D01*
X121457483Y-52344091D01*
X121592331Y-52293796D01*
X121707546Y-52207546D01*
X121793796Y-52092331D01*
X121844091Y-51957483D01*
X121850500Y-51897873D01*
X121850500Y-51874500D01*
X121870185Y-51807461D01*
X121922989Y-51761706D01*
X121974500Y-51750500D01*
X124297770Y-51750500D01*
X124364809Y-51770185D01*
X124385451Y-51786819D01*
X138902698Y-66304066D01*
X138936183Y-66365389D01*
X138931199Y-66435081D01*
X138889327Y-66491014D01*
X138834415Y-66514220D01*
X138630465Y-66546522D01*
X138435776Y-66609781D01*
X138253386Y-66702715D01*
X138087786Y-66823028D01*
X137943028Y-66967786D01*
X137822715Y-67133386D01*
X137775485Y-67226080D01*
X137727510Y-67276876D01*
X137659689Y-67293671D01*
X137593554Y-67271134D01*
X137554515Y-67226080D01*
X137507419Y-67133650D01*
X137507287Y-67133390D01*
X137499556Y-67122749D01*
X137386971Y-66967786D01*
X137242213Y-66823028D01*
X137076613Y-66702715D01*
X137076612Y-66702714D01*
X137076610Y-66702713D01*
X137019653Y-66673691D01*
X136894223Y-66609781D01*
X136699534Y-66546522D01*
X136524995Y-66518878D01*
X136497352Y-66514500D01*
X136292648Y-66514500D01*
X136268329Y-66518351D01*
X136090465Y-66546522D01*
X135895776Y-66609781D01*
X135713386Y-66702715D01*
X135547786Y-66823028D01*
X135403028Y-66967786D01*
X135282715Y-67133386D01*
X135235485Y-67226080D01*
X135187510Y-67276876D01*
X135119689Y-67293671D01*
X135053554Y-67271134D01*
X135014515Y-67226080D01*
X134967419Y-67133650D01*
X134967287Y-67133390D01*
X134959556Y-67122749D01*
X134846971Y-66967786D01*
X134702213Y-66823028D01*
X134536613Y-66702715D01*
X134536612Y-66702714D01*
X134536610Y-66702713D01*
X134479653Y-66673691D01*
X134354223Y-66609781D01*
X134159534Y-66546522D01*
X133984995Y-66518878D01*
X133957352Y-66514500D01*
X133752648Y-66514500D01*
X133728329Y-66518351D01*
X133550465Y-66546522D01*
X133355776Y-66609781D01*
X133173386Y-66702715D01*
X133007786Y-66823028D01*
X132863032Y-66967782D01*
X132836668Y-67004070D01*
X132781338Y-67046735D01*
X132711724Y-67052714D01*
X132649929Y-67020108D01*
X132615572Y-66959269D01*
X132613060Y-66944438D01*
X132612640Y-66940533D01*
X132609091Y-66907517D01*
X132558796Y-66772669D01*
X132558795Y-66772668D01*
X132558793Y-66772664D01*
X132472547Y-66657455D01*
X132472544Y-66657452D01*
X132357335Y-66571206D01*
X132357328Y-66571202D01*
X132222482Y-66520908D01*
X132222483Y-66520908D01*
X132162883Y-66514501D01*
X132162881Y-66514500D01*
X132162873Y-66514500D01*
X132162864Y-66514500D01*
X130467129Y-66514500D01*
X130467123Y-66514501D01*
X130407516Y-66520908D01*
X130272671Y-66571202D01*
X130272664Y-66571206D01*
X130157455Y-66657452D01*
X130157452Y-66657455D01*
X130071206Y-66772664D01*
X130071202Y-66772671D01*
X130020908Y-66907517D01*
X130014501Y-66967116D01*
X130014500Y-66967135D01*
X130014500Y-68662870D01*
X130014501Y-68662876D01*
X130020908Y-68722483D01*
X130071202Y-68857328D01*
X130071206Y-68857335D01*
X130157452Y-68972544D01*
X130157455Y-68972547D01*
X130272664Y-69058793D01*
X130272671Y-69058797D01*
X130407517Y-69109091D01*
X130407516Y-69109091D01*
X130414444Y-69109835D01*
X130467127Y-69115500D01*
X132162872Y-69115499D01*
X132222483Y-69109091D01*
X132357331Y-69058796D01*
X132472546Y-68972546D01*
X132558796Y-68857331D01*
X132609091Y-68722483D01*
X132613061Y-68685556D01*
X132639796Y-68621011D01*
X132697188Y-68581161D01*
X132767013Y-68578666D01*
X132827102Y-68614317D01*
X132836667Y-68625929D01*
X132863032Y-68662217D01*
X133007786Y-68806971D01*
X133162749Y-68919556D01*
X133173390Y-68927287D01*
X133262212Y-68972544D01*
X133355776Y-69020218D01*
X133355778Y-69020218D01*
X133355781Y-69020220D01*
X133460137Y-69054127D01*
X133550465Y-69083477D01*
X133651557Y-69099488D01*
X133752648Y-69115500D01*
X133752649Y-69115500D01*
X133957351Y-69115500D01*
X133957352Y-69115500D01*
X134159534Y-69083477D01*
X134354219Y-69020220D01*
X134536610Y-68927287D01*
X134632901Y-68857328D01*
X134702213Y-68806971D01*
X134702215Y-68806968D01*
X134702219Y-68806966D01*
X134846966Y-68662219D01*
X134846968Y-68662215D01*
X134846971Y-68662213D01*
X134967284Y-68496614D01*
X134967286Y-68496611D01*
X134967287Y-68496610D01*
X135014516Y-68403917D01*
X135062489Y-68353123D01*
X135130310Y-68336328D01*
X135196445Y-68358865D01*
X135235485Y-68403919D01*
X135282715Y-68496614D01*
X135403028Y-68662213D01*
X135547786Y-68806971D01*
X135702749Y-68919556D01*
X135713390Y-68927287D01*
X135802212Y-68972544D01*
X135895776Y-69020218D01*
X135895778Y-69020218D01*
X135895781Y-69020220D01*
X136000137Y-69054127D01*
X136090465Y-69083477D01*
X136191557Y-69099488D01*
X136292648Y-69115500D01*
X136292649Y-69115500D01*
X136497351Y-69115500D01*
X136497352Y-69115500D01*
X136699534Y-69083477D01*
X136894219Y-69020220D01*
X137076610Y-68927287D01*
X137172901Y-68857328D01*
X137242213Y-68806971D01*
X137242215Y-68806968D01*
X137242219Y-68806966D01*
X137386966Y-68662219D01*
X137386968Y-68662215D01*
X137386971Y-68662213D01*
X137507284Y-68496614D01*
X137507286Y-68496611D01*
X137507287Y-68496610D01*
X137554516Y-68403917D01*
X137602489Y-68353123D01*
X137670310Y-68336328D01*
X137736445Y-68358865D01*
X137775485Y-68403919D01*
X137822715Y-68496614D01*
X137943028Y-68662213D01*
X138087786Y-68806971D01*
X138242749Y-68919556D01*
X138253390Y-68927287D01*
X138342212Y-68972544D01*
X138435776Y-69020218D01*
X138435778Y-69020218D01*
X138435781Y-69020220D01*
X138540137Y-69054127D01*
X138630465Y-69083477D01*
X138731557Y-69099488D01*
X138832648Y-69115500D01*
X138832649Y-69115500D01*
X139037351Y-69115500D01*
X139037352Y-69115500D01*
X139239534Y-69083477D01*
X139434219Y-69020220D01*
X139616610Y-68927287D01*
X139712901Y-68857328D01*
X139782213Y-68806971D01*
X139782215Y-68806968D01*
X139782219Y-68806966D01*
X139926966Y-68662219D01*
X139926968Y-68662215D01*
X139926971Y-68662213D01*
X140047284Y-68496614D01*
X140047286Y-68496611D01*
X140047287Y-68496610D01*
X140094516Y-68403917D01*
X140142489Y-68353123D01*
X140210310Y-68336328D01*
X140276445Y-68358865D01*
X140315485Y-68403919D01*
X140362715Y-68496614D01*
X140483028Y-68662213D01*
X140627786Y-68806971D01*
X140782749Y-68919556D01*
X140793390Y-68927287D01*
X140882212Y-68972544D01*
X140975776Y-69020218D01*
X140975778Y-69020218D01*
X140975781Y-69020220D01*
X141080137Y-69054127D01*
X141170465Y-69083477D01*
X141271557Y-69099488D01*
X141372648Y-69115500D01*
X141372649Y-69115500D01*
X141577351Y-69115500D01*
X141577352Y-69115500D01*
X141779534Y-69083477D01*
X141974219Y-69020220D01*
X142156610Y-68927287D01*
X142252901Y-68857328D01*
X142322213Y-68806971D01*
X142322215Y-68806968D01*
X142322219Y-68806966D01*
X142466966Y-68662219D01*
X142466968Y-68662215D01*
X142466971Y-68662213D01*
X142587284Y-68496614D01*
X142587286Y-68496611D01*
X142587287Y-68496610D01*
X142634795Y-68403369D01*
X142682770Y-68352574D01*
X142750591Y-68335779D01*
X142816725Y-68358316D01*
X142855765Y-68403370D01*
X142903140Y-68496349D01*
X143023417Y-68661894D01*
X143023417Y-68661895D01*
X143168104Y-68806582D01*
X143333650Y-68926859D01*
X143515968Y-69019754D01*
X143710578Y-69082988D01*
X143765000Y-69091607D01*
X143765000Y-68248012D01*
X143822007Y-68280925D01*
X143949174Y-68315000D01*
X144080826Y-68315000D01*
X144207993Y-68280925D01*
X144265000Y-68248012D01*
X144265000Y-69091606D01*
X144319421Y-69082988D01*
X144514031Y-69019754D01*
X144696349Y-68926859D01*
X144861894Y-68806582D01*
X144861895Y-68806582D01*
X145006582Y-68661895D01*
X145006582Y-68661894D01*
X145126859Y-68496349D01*
X145174515Y-68402820D01*
X145222489Y-68352024D01*
X145290310Y-68335229D01*
X145356445Y-68357766D01*
X145395485Y-68402820D01*
X145443140Y-68496349D01*
X145563417Y-68661894D01*
X145563417Y-68661895D01*
X145708104Y-68806582D01*
X145873650Y-68926859D01*
X146055968Y-69019754D01*
X146250578Y-69082988D01*
X146305000Y-69091607D01*
X146305000Y-68248012D01*
X146362007Y-68280925D01*
X146489174Y-68315000D01*
X146620826Y-68315000D01*
X146747993Y-68280925D01*
X146805000Y-68248012D01*
X146805000Y-69091606D01*
X146859421Y-69082988D01*
X147054031Y-69019754D01*
X147236349Y-68926859D01*
X147401894Y-68806582D01*
X147401895Y-68806582D01*
X147546582Y-68661895D01*
X147546582Y-68661894D01*
X147666861Y-68496347D01*
X147714234Y-68403371D01*
X147762208Y-68352575D01*
X147830028Y-68335779D01*
X147896164Y-68358316D01*
X147935203Y-68403369D01*
X147982713Y-68496611D01*
X148103028Y-68662213D01*
X148247786Y-68806971D01*
X148402749Y-68919556D01*
X148413390Y-68927287D01*
X148502212Y-68972544D01*
X148595776Y-69020218D01*
X148595778Y-69020218D01*
X148595781Y-69020220D01*
X148700137Y-69054127D01*
X148790465Y-69083477D01*
X148891557Y-69099488D01*
X148992648Y-69115500D01*
X148992649Y-69115500D01*
X149197351Y-69115500D01*
X149197352Y-69115500D01*
X149399534Y-69083477D01*
X149594219Y-69020220D01*
X149776610Y-68927287D01*
X149872901Y-68857328D01*
X149942213Y-68806971D01*
X149942215Y-68806968D01*
X149942219Y-68806966D01*
X150086966Y-68662219D01*
X150086968Y-68662215D01*
X150086971Y-68662213D01*
X150147670Y-68578666D01*
X150207287Y-68496610D01*
X150300220Y-68314219D01*
X150363477Y-68119534D01*
X150395500Y-67917352D01*
X150395500Y-67712648D01*
X152874500Y-67712648D01*
X152874500Y-67917351D01*
X152906522Y-68119534D01*
X152969781Y-68314223D01*
X153062715Y-68496613D01*
X153183028Y-68662213D01*
X153327786Y-68806971D01*
X153482749Y-68919556D01*
X153493390Y-68927287D01*
X153582212Y-68972544D01*
X153675776Y-69020218D01*
X153675778Y-69020218D01*
X153675781Y-69020220D01*
X153780137Y-69054127D01*
X153870465Y-69083477D01*
X153971557Y-69099488D01*
X154072648Y-69115500D01*
X154072649Y-69115500D01*
X154277351Y-69115500D01*
X154277352Y-69115500D01*
X154479534Y-69083477D01*
X154674219Y-69020220D01*
X154856610Y-68927287D01*
X154952901Y-68857328D01*
X155022213Y-68806971D01*
X155022215Y-68806968D01*
X155022219Y-68806966D01*
X155166966Y-68662219D01*
X155166968Y-68662215D01*
X155166971Y-68662213D01*
X155287284Y-68496614D01*
X155287286Y-68496611D01*
X155287287Y-68496610D01*
X155334516Y-68403917D01*
X155382489Y-68353123D01*
X155450310Y-68336328D01*
X155516445Y-68358865D01*
X155555485Y-68403919D01*
X155602715Y-68496614D01*
X155723028Y-68662213D01*
X155867786Y-68806971D01*
X156022749Y-68919556D01*
X156033390Y-68927287D01*
X156122212Y-68972544D01*
X156215776Y-69020218D01*
X156215778Y-69020218D01*
X156215781Y-69020220D01*
X156320137Y-69054127D01*
X156410465Y-69083477D01*
X156511557Y-69099488D01*
X156612648Y-69115500D01*
X156612649Y-69115500D01*
X156817351Y-69115500D01*
X156817352Y-69115500D01*
X157019534Y-69083477D01*
X157214219Y-69020220D01*
X157396610Y-68927287D01*
X157492901Y-68857328D01*
X157562213Y-68806971D01*
X157562215Y-68806968D01*
X157562219Y-68806966D01*
X157706966Y-68662219D01*
X157706968Y-68662215D01*
X157706971Y-68662213D01*
X157827284Y-68496614D01*
X157827286Y-68496611D01*
X157827287Y-68496610D01*
X157874516Y-68403917D01*
X157922489Y-68353123D01*
X157990310Y-68336328D01*
X158056445Y-68358865D01*
X158095485Y-68403919D01*
X158142715Y-68496614D01*
X158263028Y-68662213D01*
X158407786Y-68806971D01*
X158562749Y-68919556D01*
X158573390Y-68927287D01*
X158662212Y-68972544D01*
X158755776Y-69020218D01*
X158755778Y-69020218D01*
X158755781Y-69020220D01*
X158860137Y-69054127D01*
X158950465Y-69083477D01*
X159051557Y-69099488D01*
X159152648Y-69115500D01*
X159152649Y-69115500D01*
X159357351Y-69115500D01*
X159357352Y-69115500D01*
X159559534Y-69083477D01*
X159754219Y-69020220D01*
X159936610Y-68927287D01*
X160032901Y-68857328D01*
X160102213Y-68806971D01*
X160102215Y-68806968D01*
X160102219Y-68806966D01*
X160246966Y-68662219D01*
X160246968Y-68662215D01*
X160246971Y-68662213D01*
X160367284Y-68496614D01*
X160367286Y-68496611D01*
X160367287Y-68496610D01*
X160414516Y-68403917D01*
X160462489Y-68353123D01*
X160530310Y-68336328D01*
X160596445Y-68358865D01*
X160635485Y-68403919D01*
X160682715Y-68496614D01*
X160803028Y-68662213D01*
X160947786Y-68806971D01*
X161102749Y-68919556D01*
X161113390Y-68927287D01*
X161202212Y-68972544D01*
X161295776Y-69020218D01*
X161295778Y-69020218D01*
X161295781Y-69020220D01*
X161400137Y-69054127D01*
X161490465Y-69083477D01*
X161591557Y-69099488D01*
X161692648Y-69115500D01*
X161692649Y-69115500D01*
X161897351Y-69115500D01*
X161897352Y-69115500D01*
X162099534Y-69083477D01*
X162294219Y-69020220D01*
X162476610Y-68927287D01*
X162572901Y-68857328D01*
X162642213Y-68806971D01*
X162642215Y-68806968D01*
X162642219Y-68806966D01*
X162786966Y-68662219D01*
X162786968Y-68662215D01*
X162786971Y-68662213D01*
X162907284Y-68496614D01*
X162907286Y-68496611D01*
X162907287Y-68496610D01*
X162954516Y-68403917D01*
X163002489Y-68353123D01*
X163070310Y-68336328D01*
X163136445Y-68358865D01*
X163175485Y-68403919D01*
X163222715Y-68496614D01*
X163343028Y-68662213D01*
X163487786Y-68806971D01*
X163642749Y-68919556D01*
X163653390Y-68927287D01*
X163742212Y-68972544D01*
X163835776Y-69020218D01*
X163835778Y-69020218D01*
X163835781Y-69020220D01*
X163940137Y-69054127D01*
X164030465Y-69083477D01*
X164131557Y-69099488D01*
X164232648Y-69115500D01*
X164232649Y-69115500D01*
X164437351Y-69115500D01*
X164437352Y-69115500D01*
X164639534Y-69083477D01*
X164834219Y-69020220D01*
X165016610Y-68927287D01*
X165112901Y-68857328D01*
X165182213Y-68806971D01*
X165182215Y-68806968D01*
X165182219Y-68806966D01*
X165326966Y-68662219D01*
X165326968Y-68662215D01*
X165326971Y-68662213D01*
X165447284Y-68496614D01*
X165447286Y-68496611D01*
X165447287Y-68496610D01*
X165494516Y-68403917D01*
X165542489Y-68353123D01*
X165610310Y-68336328D01*
X165676445Y-68358865D01*
X165715485Y-68403919D01*
X165762715Y-68496614D01*
X165883028Y-68662213D01*
X166027786Y-68806971D01*
X166182749Y-68919556D01*
X166193390Y-68927287D01*
X166282212Y-68972544D01*
X166375776Y-69020218D01*
X166375778Y-69020218D01*
X166375781Y-69020220D01*
X166480137Y-69054127D01*
X166570465Y-69083477D01*
X166671557Y-69099488D01*
X166772648Y-69115500D01*
X166772649Y-69115500D01*
X166977351Y-69115500D01*
X166977352Y-69115500D01*
X167179534Y-69083477D01*
X167374219Y-69020220D01*
X167556610Y-68927287D01*
X167652901Y-68857328D01*
X167722213Y-68806971D01*
X167722215Y-68806968D01*
X167722219Y-68806966D01*
X167866966Y-68662219D01*
X167866968Y-68662215D01*
X167866971Y-68662213D01*
X167927670Y-68578666D01*
X167987287Y-68496610D01*
X168080220Y-68314219D01*
X168143477Y-68119534D01*
X168175500Y-67917352D01*
X168175500Y-67712648D01*
X168161144Y-67622007D01*
X168143477Y-67510465D01*
X168080218Y-67315776D01*
X167987419Y-67133650D01*
X167987287Y-67133390D01*
X167979556Y-67122749D01*
X167866971Y-66967786D01*
X167722213Y-66823028D01*
X167556613Y-66702715D01*
X167556612Y-66702714D01*
X167556610Y-66702713D01*
X167499653Y-66673691D01*
X167374223Y-66609781D01*
X167179534Y-66546522D01*
X167004995Y-66518878D01*
X166977352Y-66514500D01*
X166772648Y-66514500D01*
X166748329Y-66518351D01*
X166570465Y-66546522D01*
X166375776Y-66609781D01*
X166193386Y-66702715D01*
X166027786Y-66823028D01*
X165883028Y-66967786D01*
X165762715Y-67133386D01*
X165715485Y-67226080D01*
X165667510Y-67276876D01*
X165599689Y-67293671D01*
X165533554Y-67271134D01*
X165494515Y-67226080D01*
X165447419Y-67133650D01*
X165447287Y-67133390D01*
X165439556Y-67122749D01*
X165326971Y-66967786D01*
X165182213Y-66823028D01*
X165016613Y-66702715D01*
X165016612Y-66702714D01*
X165016610Y-66702713D01*
X164959653Y-66673691D01*
X164834223Y-66609781D01*
X164639534Y-66546522D01*
X164464995Y-66518878D01*
X164437352Y-66514500D01*
X164232648Y-66514500D01*
X164208329Y-66518351D01*
X164030465Y-66546522D01*
X163835776Y-66609781D01*
X163653386Y-66702715D01*
X163487786Y-66823028D01*
X163343028Y-66967786D01*
X163222715Y-67133386D01*
X163175485Y-67226080D01*
X163127510Y-67276876D01*
X163059689Y-67293671D01*
X162993554Y-67271134D01*
X162954515Y-67226080D01*
X162907419Y-67133650D01*
X162907287Y-67133390D01*
X162899556Y-67122749D01*
X162786971Y-66967786D01*
X162642213Y-66823028D01*
X162476613Y-66702715D01*
X162476612Y-66702714D01*
X162476610Y-66702713D01*
X162419653Y-66673691D01*
X162294223Y-66609781D01*
X162099534Y-66546522D01*
X161924995Y-66518878D01*
X161897352Y-66514500D01*
X161692648Y-66514500D01*
X161668329Y-66518351D01*
X161490465Y-66546522D01*
X161295776Y-66609781D01*
X161113386Y-66702715D01*
X160947786Y-66823028D01*
X160803028Y-66967786D01*
X160682715Y-67133386D01*
X160635485Y-67226080D01*
X160587510Y-67276876D01*
X160519689Y-67293671D01*
X160453554Y-67271134D01*
X160414515Y-67226080D01*
X160367419Y-67133650D01*
X160367287Y-67133390D01*
X160359556Y-67122749D01*
X160246971Y-66967786D01*
X160102213Y-66823028D01*
X159936613Y-66702715D01*
X159936612Y-66702714D01*
X159936610Y-66702713D01*
X159879653Y-66673691D01*
X159754223Y-66609781D01*
X159559534Y-66546522D01*
X159384995Y-66518878D01*
X159357352Y-66514500D01*
X159152648Y-66514500D01*
X159128329Y-66518351D01*
X158950465Y-66546522D01*
X158755776Y-66609781D01*
X158573386Y-66702715D01*
X158407786Y-66823028D01*
X158263028Y-66967786D01*
X158142715Y-67133386D01*
X158095485Y-67226080D01*
X158047510Y-67276876D01*
X157979689Y-67293671D01*
X157913554Y-67271134D01*
X157874515Y-67226080D01*
X157827419Y-67133650D01*
X157827287Y-67133390D01*
X157819556Y-67122749D01*
X157706971Y-66967786D01*
X157562213Y-66823028D01*
X157396613Y-66702715D01*
X157396612Y-66702714D01*
X157396610Y-66702713D01*
X157339653Y-66673691D01*
X157214223Y-66609781D01*
X157019534Y-66546522D01*
X156844995Y-66518878D01*
X156817352Y-66514500D01*
X156612648Y-66514500D01*
X156588329Y-66518351D01*
X156410465Y-66546522D01*
X156215776Y-66609781D01*
X156033386Y-66702715D01*
X155867786Y-66823028D01*
X155723028Y-66967786D01*
X155602715Y-67133386D01*
X155555485Y-67226080D01*
X155507510Y-67276876D01*
X155439689Y-67293671D01*
X155373554Y-67271134D01*
X155334515Y-67226080D01*
X155287419Y-67133650D01*
X155287287Y-67133390D01*
X155279556Y-67122749D01*
X155166971Y-66967786D01*
X155022213Y-66823028D01*
X154856613Y-66702715D01*
X154856612Y-66702714D01*
X154856610Y-66702713D01*
X154799653Y-66673691D01*
X154674223Y-66609781D01*
X154479534Y-66546522D01*
X154304995Y-66518878D01*
X154277352Y-66514500D01*
X154072648Y-66514500D01*
X154048329Y-66518351D01*
X153870465Y-66546522D01*
X153675776Y-66609781D01*
X153493386Y-66702715D01*
X153327786Y-66823028D01*
X153183028Y-66967786D01*
X153062715Y-67133386D01*
X152969781Y-67315776D01*
X152906522Y-67510465D01*
X152874500Y-67712648D01*
X150395500Y-67712648D01*
X150381144Y-67622007D01*
X150363477Y-67510465D01*
X150300218Y-67315776D01*
X150207419Y-67133650D01*
X150207287Y-67133390D01*
X150199556Y-67122749D01*
X150086971Y-66967786D01*
X149942217Y-66823032D01*
X149942212Y-66823028D01*
X149896615Y-66789900D01*
X149853949Y-66734571D01*
X149845500Y-66689582D01*
X149845500Y-65767229D01*
X149865185Y-65700190D01*
X149881814Y-65679553D01*
X160690378Y-54870988D01*
X160751701Y-54837504D01*
X160821393Y-54842488D01*
X160877326Y-54884360D01*
X160901743Y-54949824D01*
X160892620Y-55006122D01*
X160883430Y-55028307D01*
X160883430Y-55028309D01*
X160875138Y-55070000D01*
X161678012Y-55070000D01*
X161660795Y-55079940D01*
X161604940Y-55135795D01*
X161565444Y-55204204D01*
X161545000Y-55280504D01*
X161545000Y-55359496D01*
X161565444Y-55435796D01*
X161604940Y-55504205D01*
X161660795Y-55560060D01*
X161678012Y-55570000D01*
X160875138Y-55570000D01*
X160883430Y-55611690D01*
X160883430Y-55611692D01*
X160958807Y-55793671D01*
X160958814Y-55793684D01*
X161068248Y-55957462D01*
X161068251Y-55957466D01*
X161207533Y-56096748D01*
X161207537Y-56096751D01*
X161371315Y-56206185D01*
X161371328Y-56206192D01*
X161553306Y-56281569D01*
X161553318Y-56281572D01*
X161746504Y-56319999D01*
X161746508Y-56320000D01*
X162145000Y-56320000D01*
X162145000Y-55620000D01*
X162645000Y-55620000D01*
X162645000Y-56320000D01*
X163043492Y-56320000D01*
X163043495Y-56319999D01*
X163236681Y-56281572D01*
X163236693Y-56281569D01*
X163418671Y-56206192D01*
X163418684Y-56206185D01*
X163582462Y-56096751D01*
X163582466Y-56096748D01*
X163721748Y-55957466D01*
X163721751Y-55957462D01*
X163831185Y-55793684D01*
X163831192Y-55793671D01*
X163906569Y-55611692D01*
X163906569Y-55611690D01*
X163914862Y-55570000D01*
X163111988Y-55570000D01*
X163129205Y-55560060D01*
X163185060Y-55504205D01*
X163224556Y-55435796D01*
X163245000Y-55359496D01*
X163245000Y-55280504D01*
X163224556Y-55204204D01*
X163185060Y-55135795D01*
X163129205Y-55079940D01*
X163111988Y-55070000D01*
X163914862Y-55070000D01*
X165205138Y-55070000D01*
X166008012Y-55070000D01*
X165990795Y-55079940D01*
X165934940Y-55135795D01*
X165895444Y-55204204D01*
X165875000Y-55280504D01*
X165875000Y-55359496D01*
X165895444Y-55435796D01*
X165934940Y-55504205D01*
X165990795Y-55560060D01*
X166008012Y-55570000D01*
X165205138Y-55570000D01*
X165213430Y-55611690D01*
X165213430Y-55611692D01*
X165288807Y-55793671D01*
X165288814Y-55793684D01*
X165398248Y-55957462D01*
X165398251Y-55957466D01*
X165537533Y-56096748D01*
X165537537Y-56096751D01*
X165701315Y-56206185D01*
X165701328Y-56206192D01*
X165883306Y-56281569D01*
X165883318Y-56281572D01*
X166076504Y-56319999D01*
X166076508Y-56320000D01*
X166325000Y-56320000D01*
X166325000Y-55620000D01*
X166825000Y-55620000D01*
X166825000Y-56320000D01*
X167073492Y-56320000D01*
X167073495Y-56319999D01*
X167266681Y-56281572D01*
X167266693Y-56281569D01*
X167448671Y-56206192D01*
X167448684Y-56206185D01*
X167612462Y-56096751D01*
X167612466Y-56096748D01*
X167751748Y-55957466D01*
X167751751Y-55957462D01*
X167861185Y-55793684D01*
X167861192Y-55793671D01*
X167936569Y-55611692D01*
X167936569Y-55611690D01*
X167944862Y-55570000D01*
X167141988Y-55570000D01*
X167159205Y-55560060D01*
X167215060Y-55504205D01*
X167254556Y-55435796D01*
X167275000Y-55359496D01*
X167275000Y-55280504D01*
X167254556Y-55204204D01*
X167215060Y-55135795D01*
X167159205Y-55079940D01*
X167141988Y-55070000D01*
X167944862Y-55070000D01*
X167936569Y-55028309D01*
X167936569Y-55028307D01*
X167861192Y-54846328D01*
X167861185Y-54846315D01*
X167751751Y-54682537D01*
X167751748Y-54682533D01*
X167612466Y-54543251D01*
X167612462Y-54543248D01*
X167448684Y-54433814D01*
X167448671Y-54433807D01*
X167266693Y-54358430D01*
X167266681Y-54358427D01*
X167073495Y-54320000D01*
X166825000Y-54320000D01*
X166825000Y-55020000D01*
X166325000Y-55020000D01*
X166325000Y-54320000D01*
X166076504Y-54320000D01*
X165883318Y-54358427D01*
X165883306Y-54358430D01*
X165701328Y-54433807D01*
X165701315Y-54433814D01*
X165537537Y-54543248D01*
X165537533Y-54543251D01*
X165398251Y-54682533D01*
X165398248Y-54682537D01*
X165288814Y-54846315D01*
X165288807Y-54846328D01*
X165213430Y-55028307D01*
X165213430Y-55028309D01*
X165205138Y-55070000D01*
X163914862Y-55070000D01*
X163906569Y-55028309D01*
X163906569Y-55028307D01*
X163831192Y-54846328D01*
X163831185Y-54846315D01*
X163721751Y-54682537D01*
X163721748Y-54682533D01*
X163582466Y-54543251D01*
X163582462Y-54543248D01*
X163418684Y-54433814D01*
X163418674Y-54433809D01*
X163409157Y-54429867D01*
X163354754Y-54386026D01*
X163332689Y-54319731D01*
X163349969Y-54252032D01*
X163353648Y-54246597D01*
X163355512Y-54243367D01*
X163355515Y-54243365D01*
X163431281Y-54112135D01*
X163470500Y-53965766D01*
X163470500Y-53814234D01*
X163431281Y-53667865D01*
X163355515Y-53536635D01*
X163248365Y-53429485D01*
X163146767Y-53370827D01*
X163117136Y-53353719D01*
X163043950Y-53334109D01*
X162970766Y-53314500D01*
X162819234Y-53314500D01*
X162672863Y-53353719D01*
X162541635Y-53429485D01*
X162541632Y-53429487D01*
X162434487Y-53536632D01*
X162434485Y-53536635D01*
X162358719Y-53667863D01*
X162341268Y-53732993D01*
X162319500Y-53814234D01*
X162319500Y-53965766D01*
X162339109Y-54038950D01*
X162358719Y-54112136D01*
X162389934Y-54166201D01*
X162434485Y-54243365D01*
X162541635Y-54350515D01*
X162583000Y-54374397D01*
X162631216Y-54424964D01*
X162645000Y-54481784D01*
X162645000Y-55020000D01*
X162145000Y-55020000D01*
X162145000Y-54320000D01*
X161746504Y-54320000D01*
X161561949Y-54356710D01*
X161492357Y-54350483D01*
X161437180Y-54307619D01*
X161413936Y-54241730D01*
X161430004Y-54173733D01*
X161434657Y-54166201D01*
X161459389Y-54129187D01*
X161459390Y-54129184D01*
X161459394Y-54129179D01*
X161519737Y-53983497D01*
X161550500Y-53828842D01*
X161550500Y-53671158D01*
X161550500Y-53671155D01*
X161550499Y-53671153D01*
X161545545Y-53646246D01*
X161519737Y-53516503D01*
X161483694Y-53429487D01*
X161459397Y-53370827D01*
X161459390Y-53370814D01*
X161371789Y-53239711D01*
X161371786Y-53239707D01*
X161260292Y-53128213D01*
X161260284Y-53128207D01*
X161222712Y-53103102D01*
X161177906Y-53049490D01*
X161169199Y-52980165D01*
X161199353Y-52917138D01*
X161222712Y-52896898D01*
X161254735Y-52875500D01*
X161260289Y-52871789D01*
X161371789Y-52760289D01*
X161459394Y-52629179D01*
X161519737Y-52483497D01*
X161550500Y-52328842D01*
X161550500Y-52171158D01*
X161550500Y-52171155D01*
X161550499Y-52171153D01*
X161534820Y-52092331D01*
X161519737Y-52016503D01*
X161519735Y-52016498D01*
X161459397Y-51870827D01*
X161459390Y-51870814D01*
X161371789Y-51739711D01*
X161371786Y-51739707D01*
X161260292Y-51628213D01*
X161260288Y-51628210D01*
X161129185Y-51540609D01*
X161129172Y-51540602D01*
X160983501Y-51480264D01*
X160983489Y-51480261D01*
X160828845Y-51449500D01*
X160828842Y-51449500D01*
X160671158Y-51449500D01*
X160671155Y-51449500D01*
X160516510Y-51480261D01*
X160516498Y-51480264D01*
X160370827Y-51540602D01*
X160370815Y-51540609D01*
X160276541Y-51603602D01*
X160209864Y-51624480D01*
X160207650Y-51624500D01*
X157317741Y-51624500D01*
X157317721Y-51624499D01*
X157311607Y-51624499D01*
X157188394Y-51624499D01*
X157087597Y-51644548D01*
X157087592Y-51644548D01*
X157067549Y-51648536D01*
X157067547Y-51648536D01*
X157020397Y-51668067D01*
X156953719Y-51695685D01*
X156953717Y-51695686D01*
X156851266Y-51764141D01*
X156851263Y-51764144D01*
X155417627Y-53197781D01*
X155356304Y-53231266D01*
X155309584Y-53230776D01*
X155309346Y-53232285D01*
X155205898Y-53215900D01*
X155102352Y-53199500D01*
X154897648Y-53199500D01*
X154873329Y-53203351D01*
X154695465Y-53231522D01*
X154500776Y-53294781D01*
X154318386Y-53387715D01*
X154152786Y-53508028D01*
X154008028Y-53652786D01*
X153887715Y-53818386D01*
X153794781Y-54000776D01*
X153731522Y-54195465D01*
X153699500Y-54397648D01*
X153699500Y-54602351D01*
X153731522Y-54804534D01*
X153794781Y-54999223D01*
X153835909Y-55079940D01*
X153887585Y-55181359D01*
X153887715Y-55181613D01*
X154008028Y-55347213D01*
X154152786Y-55491971D01*
X154248608Y-55561588D01*
X154318390Y-55612287D01*
X154434607Y-55671503D01*
X154500776Y-55705218D01*
X154500778Y-55705218D01*
X154500781Y-55705220D01*
X154605137Y-55739127D01*
X154695465Y-55768477D01*
X154796557Y-55784488D01*
X154897648Y-55800500D01*
X154897649Y-55800500D01*
X155102351Y-55800500D01*
X155102352Y-55800500D01*
X155304534Y-55768477D01*
X155499219Y-55705220D01*
X155681610Y-55612287D01*
X155809349Y-55519480D01*
X155847213Y-55491971D01*
X155847215Y-55491968D01*
X155847219Y-55491966D01*
X155991966Y-55347219D01*
X155991968Y-55347215D01*
X155991971Y-55347213D01*
X156044732Y-55274590D01*
X156112287Y-55181610D01*
X156205220Y-54999219D01*
X156268477Y-54804534D01*
X156300500Y-54602352D01*
X156300500Y-54397648D01*
X156278744Y-54260289D01*
X156267715Y-54190654D01*
X156269777Y-54190327D01*
X156272784Y-54129304D01*
X156302215Y-54082373D01*
X157472772Y-52911819D01*
X157534095Y-52878334D01*
X157560453Y-52875500D01*
X160207650Y-52875500D01*
X160225787Y-52880825D01*
X160244689Y-52881161D01*
X160272927Y-52894667D01*
X160274689Y-52895185D01*
X160276528Y-52896390D01*
X160277275Y-52896889D01*
X160322087Y-52950495D01*
X160330803Y-53019819D01*
X160300656Y-53082850D01*
X160277290Y-53103100D01*
X160239710Y-53128211D01*
X160239707Y-53128213D01*
X160128213Y-53239707D01*
X160128207Y-53239715D01*
X160040607Y-53370818D01*
X160040606Y-53370819D01*
X160030805Y-53394480D01*
X160003927Y-53434703D01*
X148512050Y-64926580D01*
X148512044Y-64926588D01*
X148462812Y-65000268D01*
X148462813Y-65000269D01*
X148429921Y-65049496D01*
X148429914Y-65049508D01*
X148373342Y-65186086D01*
X148373340Y-65186092D01*
X148344500Y-65331079D01*
X148344500Y-66689582D01*
X148324815Y-66756621D01*
X148293385Y-66789900D01*
X148247787Y-66823028D01*
X148247782Y-66823032D01*
X148103028Y-66967786D01*
X147982713Y-67133388D01*
X147935203Y-67226630D01*
X147887228Y-67277426D01*
X147819407Y-67294220D01*
X147753272Y-67271682D01*
X147714234Y-67226628D01*
X147666861Y-67133652D01*
X147546582Y-66968105D01*
X147546582Y-66968104D01*
X147401895Y-66823417D01*
X147236349Y-66703140D01*
X147054029Y-66610244D01*
X146859413Y-66547009D01*
X146805000Y-66538390D01*
X146805000Y-67381988D01*
X146747993Y-67349075D01*
X146620826Y-67315000D01*
X146489174Y-67315000D01*
X146362007Y-67349075D01*
X146305000Y-67381988D01*
X146305000Y-66538390D01*
X146250586Y-66547009D01*
X146055970Y-66610244D01*
X145873650Y-66703140D01*
X145708105Y-66823417D01*
X145708104Y-66823417D01*
X145563417Y-66968104D01*
X145563417Y-66968105D01*
X145443140Y-67133650D01*
X145395485Y-67227179D01*
X145347510Y-67277975D01*
X145279689Y-67294770D01*
X145213554Y-67272232D01*
X145174515Y-67227179D01*
X145126859Y-67133650D01*
X145006582Y-66968105D01*
X145006582Y-66968104D01*
X144861895Y-66823417D01*
X144696349Y-66703140D01*
X144514029Y-66610244D01*
X144319413Y-66547009D01*
X144265000Y-66538390D01*
X144265000Y-67381988D01*
X144207993Y-67349075D01*
X144080826Y-67315000D01*
X143949174Y-67315000D01*
X143822007Y-67349075D01*
X143765000Y-67381988D01*
X143765000Y-66538390D01*
X143710586Y-66547009D01*
X143515970Y-66610244D01*
X143333650Y-66703140D01*
X143168105Y-66823417D01*
X143168104Y-66823417D01*
X143023417Y-66968104D01*
X143023417Y-66968105D01*
X142903140Y-67133650D01*
X142855765Y-67226629D01*
X142807790Y-67277425D01*
X142739969Y-67294220D01*
X142673834Y-67271682D01*
X142634795Y-67226629D01*
X142587419Y-67133650D01*
X142587287Y-67133390D01*
X142579556Y-67122749D01*
X142466971Y-66967786D01*
X142322213Y-66823028D01*
X142156613Y-66702715D01*
X142156612Y-66702714D01*
X142156610Y-66702713D01*
X142099653Y-66673691D01*
X141974223Y-66609781D01*
X141779534Y-66546522D01*
X141604995Y-66518878D01*
X141577352Y-66514500D01*
X141372648Y-66514500D01*
X141316972Y-66523318D01*
X141247679Y-66514363D01*
X141209894Y-66488526D01*
X129119050Y-54397682D01*
X143540000Y-54397682D01*
X143540000Y-54602317D01*
X143572009Y-54804417D01*
X143635244Y-54999031D01*
X143728141Y-55181350D01*
X143728147Y-55181359D01*
X143760523Y-55225921D01*
X143760524Y-55225922D01*
X144440000Y-54546446D01*
X144440000Y-54552661D01*
X144467259Y-54654394D01*
X144519920Y-54745606D01*
X144594394Y-54820080D01*
X144685606Y-54872741D01*
X144787339Y-54900000D01*
X144793553Y-54900000D01*
X144114076Y-55579474D01*
X144158650Y-55611859D01*
X144340968Y-55704755D01*
X144535582Y-55767990D01*
X144737683Y-55800000D01*
X144942317Y-55800000D01*
X145144417Y-55767990D01*
X145339031Y-55704755D01*
X145521349Y-55611859D01*
X145565921Y-55579474D01*
X144886447Y-54900000D01*
X144892661Y-54900000D01*
X144994394Y-54872741D01*
X145085606Y-54820080D01*
X145160080Y-54745606D01*
X145212741Y-54654394D01*
X145240000Y-54552661D01*
X145240000Y-54546448D01*
X145919474Y-55225922D01*
X145919474Y-55225921D01*
X145951859Y-55181349D01*
X146044755Y-54999031D01*
X146107990Y-54804417D01*
X146140000Y-54602317D01*
X146140000Y-54397682D01*
X146107990Y-54195582D01*
X146044755Y-54000968D01*
X145951859Y-53818650D01*
X145919474Y-53774077D01*
X145919474Y-53774076D01*
X145240000Y-54453551D01*
X145240000Y-54447339D01*
X145212741Y-54345606D01*
X145160080Y-54254394D01*
X145085606Y-54179920D01*
X144994394Y-54127259D01*
X144892661Y-54100000D01*
X144886446Y-54100000D01*
X145565922Y-53420524D01*
X145565921Y-53420523D01*
X145521359Y-53388147D01*
X145521350Y-53388141D01*
X145339031Y-53295244D01*
X145144417Y-53232009D01*
X144942317Y-53200000D01*
X144737683Y-53200000D01*
X144535582Y-53232009D01*
X144340968Y-53295244D01*
X144158644Y-53388143D01*
X144114077Y-53420523D01*
X144114077Y-53420524D01*
X144793554Y-54100000D01*
X144787339Y-54100000D01*
X144685606Y-54127259D01*
X144594394Y-54179920D01*
X144519920Y-54254394D01*
X144467259Y-54345606D01*
X144440000Y-54447339D01*
X144440000Y-54453553D01*
X143760524Y-53774077D01*
X143760523Y-53774077D01*
X143728143Y-53818644D01*
X143635244Y-54000968D01*
X143572009Y-54195582D01*
X143540000Y-54397682D01*
X129119050Y-54397682D01*
X125138413Y-50417045D01*
X125089179Y-50384150D01*
X125056355Y-50362218D01*
X125015495Y-50334916D01*
X125015494Y-50334915D01*
X125015492Y-50334914D01*
X125015490Y-50334913D01*
X124878917Y-50278343D01*
X124878907Y-50278340D01*
X124733920Y-50249500D01*
X124733918Y-50249500D01*
X121974499Y-50249500D01*
X121907460Y-50229815D01*
X121861705Y-50177011D01*
X121850499Y-50125500D01*
X121850499Y-50102129D01*
X121850498Y-50102123D01*
X121850497Y-50102116D01*
X121844091Y-50042517D01*
X121813089Y-49959397D01*
X121793797Y-49907671D01*
X121793793Y-49907664D01*
X121707547Y-49792455D01*
X121707544Y-49792452D01*
X121592335Y-49706206D01*
X121592328Y-49706202D01*
X121457482Y-49655908D01*
X121457483Y-49655908D01*
X121397883Y-49649501D01*
X121397881Y-49649500D01*
X121397873Y-49649500D01*
X121397864Y-49649500D01*
X119602129Y-49649500D01*
X119602123Y-49649501D01*
X119542516Y-49655908D01*
X119407671Y-49706202D01*
X119407664Y-49706206D01*
X119292455Y-49792452D01*
X119292452Y-49792455D01*
X119206206Y-49907664D01*
X119206202Y-49907671D01*
X119155908Y-50042517D01*
X119149501Y-50102116D01*
X119149501Y-50102123D01*
X119149500Y-50102135D01*
X119149500Y-51897870D01*
X119149501Y-51897876D01*
X119155908Y-51957483D01*
X119206202Y-52092328D01*
X119206206Y-52092335D01*
X119292452Y-52207544D01*
X119292455Y-52207547D01*
X119407664Y-52293793D01*
X119407671Y-52293797D01*
X119452618Y-52310561D01*
X119542517Y-52344091D01*
X119602127Y-52350500D01*
X119612685Y-52350499D01*
X119679723Y-52370179D01*
X119700372Y-52386818D01*
X120370591Y-53057037D01*
X120307007Y-53074075D01*
X120192993Y-53139901D01*
X120099901Y-53232993D01*
X120034075Y-53347007D01*
X120017037Y-53410591D01*
X119384728Y-52778282D01*
X119384727Y-52778282D01*
X119345380Y-52832439D01*
X119248904Y-53021782D01*
X119183242Y-53223869D01*
X119183242Y-53223872D01*
X119150000Y-53433753D01*
X119150000Y-53646246D01*
X119183242Y-53856127D01*
X119183242Y-53856130D01*
X119248904Y-54058217D01*
X119345375Y-54247550D01*
X119384728Y-54301716D01*
X120017037Y-53669408D01*
X120034075Y-53732993D01*
X120099901Y-53847007D01*
X120192993Y-53940099D01*
X120307007Y-54005925D01*
X120370590Y-54022962D01*
X119738282Y-54655269D01*
X119738282Y-54655270D01*
X119792452Y-54694626D01*
X119792451Y-54694626D01*
X119801495Y-54699234D01*
X119852292Y-54747208D01*
X119869087Y-54815029D01*
X119846550Y-54881164D01*
X119801499Y-54920202D01*
X119792182Y-54924949D01*
X119620213Y-55049890D01*
X119469896Y-55200207D01*
X119427898Y-55258012D01*
X119362238Y-55348386D01*
X119306911Y-55391051D01*
X119261922Y-55399500D01*
X104336669Y-55399500D01*
X104336653Y-55399499D01*
X104329057Y-55399499D01*
X104170943Y-55399499D01*
X104063587Y-55428265D01*
X104018210Y-55440424D01*
X104018209Y-55440425D01*
X103968096Y-55469359D01*
X103968095Y-55469360D01*
X103928940Y-55491966D01*
X103881285Y-55519479D01*
X103881282Y-55519481D01*
X95519481Y-63881282D01*
X95519479Y-63881285D01*
X95469361Y-63968094D01*
X95469359Y-63968096D01*
X95440425Y-64018209D01*
X95440424Y-64018210D01*
X95440423Y-64018215D01*
X95399499Y-64170943D01*
X95399499Y-64329057D01*
X95399499Y-64329059D01*
X95399500Y-64339053D01*
X95399500Y-126913330D01*
X95399499Y-126913348D01*
X95399499Y-127079054D01*
X95399498Y-127079054D01*
X91750500Y-127079054D01*
X91750500Y-47647682D01*
X143450000Y-47647682D01*
X143450000Y-47852317D01*
X143482009Y-48054417D01*
X143545244Y-48249031D01*
X143638141Y-48431350D01*
X143638147Y-48431359D01*
X143670523Y-48475921D01*
X143670524Y-48475922D01*
X144350000Y-47796446D01*
X144350000Y-47802661D01*
X144377259Y-47904394D01*
X144429920Y-47995606D01*
X144504394Y-48070080D01*
X144595606Y-48122741D01*
X144697339Y-48150000D01*
X144703553Y-48150000D01*
X144024076Y-48829474D01*
X144068650Y-48861859D01*
X144250968Y-48954755D01*
X144445582Y-49017990D01*
X144647683Y-49050000D01*
X144852317Y-49050000D01*
X145054417Y-49017990D01*
X145249031Y-48954755D01*
X145431349Y-48861859D01*
X145475921Y-48829474D01*
X144796447Y-48150000D01*
X144802661Y-48150000D01*
X144904394Y-48122741D01*
X144995606Y-48070080D01*
X145070080Y-47995606D01*
X145122741Y-47904394D01*
X145150000Y-47802661D01*
X145150000Y-47796447D01*
X145829474Y-48475921D01*
X145861859Y-48431349D01*
X145954755Y-48249031D01*
X146017990Y-48054417D01*
X146050000Y-47852317D01*
X146050000Y-47647682D01*
X146049995Y-47647648D01*
X153609500Y-47647648D01*
X153609500Y-47852351D01*
X153641522Y-48054534D01*
X153704781Y-48249223D01*
X153747028Y-48332135D01*
X153797585Y-48431359D01*
X153797715Y-48431613D01*
X153918028Y-48597213D01*
X154062786Y-48741971D01*
X154183226Y-48829474D01*
X154228390Y-48862287D01*
X154344607Y-48921503D01*
X154410776Y-48955218D01*
X154410778Y-48955218D01*
X154410781Y-48955220D01*
X154515137Y-48989127D01*
X154605465Y-49018477D01*
X154706557Y-49034488D01*
X154807648Y-49050500D01*
X154807649Y-49050500D01*
X155012351Y-49050500D01*
X155012352Y-49050500D01*
X155214534Y-49018477D01*
X155409219Y-48955220D01*
X155591610Y-48862287D01*
X155684590Y-48794732D01*
X155757213Y-48741971D01*
X155757215Y-48741968D01*
X155757219Y-48741966D01*
X155901966Y-48597219D01*
X155901968Y-48597215D01*
X155901971Y-48597213D01*
X156025151Y-48427669D01*
X156026823Y-48428884D01*
X156072208Y-48387831D01*
X156126115Y-48375500D01*
X158939548Y-48375500D01*
X159006587Y-48395185D01*
X159027229Y-48411819D01*
X159924205Y-49308796D01*
X159957690Y-49370119D01*
X159958141Y-49372286D01*
X159980261Y-49483489D01*
X159980264Y-49483501D01*
X160040602Y-49629172D01*
X160040609Y-49629185D01*
X160128210Y-49760288D01*
X160128213Y-49760292D01*
X160239707Y-49871786D01*
X160239711Y-49871789D01*
X160370814Y-49959390D01*
X160370827Y-49959397D01*
X160516498Y-50019735D01*
X160516503Y-50019737D01*
X160671153Y-50050499D01*
X160671156Y-50050500D01*
X160671158Y-50050500D01*
X160828844Y-50050500D01*
X160828845Y-50050499D01*
X160983497Y-50019737D01*
X161129179Y-49959394D01*
X161260289Y-49871789D01*
X161371789Y-49760289D01*
X161459394Y-49629179D01*
X161519737Y-49483497D01*
X161550500Y-49328842D01*
X161550500Y-49171158D01*
X161550500Y-49171155D01*
X161550499Y-49171153D01*
X161526400Y-49050000D01*
X161519737Y-49016503D01*
X161494352Y-48955218D01*
X161459397Y-48870827D01*
X161459390Y-48870814D01*
X161371789Y-48739711D01*
X161371786Y-48739707D01*
X161260292Y-48628213D01*
X161260288Y-48628210D01*
X161129185Y-48540609D01*
X161129172Y-48540602D01*
X160983501Y-48480264D01*
X160983489Y-48480261D01*
X160872286Y-48458141D01*
X160810375Y-48425756D01*
X160808796Y-48424205D01*
X160498379Y-48113788D01*
X159745822Y-47361232D01*
X159735859Y-47351269D01*
X159735858Y-47351267D01*
X159648733Y-47264142D01*
X159597509Y-47229915D01*
X159546286Y-47195688D01*
X159546283Y-47195686D01*
X159546280Y-47195685D01*
X159472603Y-47165168D01*
X159472601Y-47165167D01*
X159465792Y-47162347D01*
X159432452Y-47148537D01*
X159372029Y-47136518D01*
X159367306Y-47135578D01*
X159367304Y-47135578D01*
X159311610Y-47124500D01*
X159311607Y-47124500D01*
X159311606Y-47124500D01*
X156126115Y-47124500D01*
X156120819Y-47122945D01*
X156115410Y-47124037D01*
X156087656Y-47113207D01*
X156059076Y-47104815D01*
X156054101Y-47100113D01*
X156050320Y-47098638D01*
X156037893Y-47084794D01*
X156025741Y-47073309D01*
X156022556Y-47068918D01*
X156022287Y-47068390D01*
X155950424Y-46969478D01*
X155950423Y-46969475D01*
X155901971Y-46902787D01*
X155901967Y-46902782D01*
X155757213Y-46758028D01*
X155591614Y-46637715D01*
X155466205Y-46573816D01*
X155409223Y-46544781D01*
X155214534Y-46481522D01*
X155039995Y-46453878D01*
X155012352Y-46449500D01*
X154807648Y-46449500D01*
X154783329Y-46453351D01*
X154605465Y-46481522D01*
X154410776Y-46544781D01*
X154228386Y-46637715D01*
X154062786Y-46758028D01*
X153918028Y-46902786D01*
X153797715Y-47068386D01*
X153704781Y-47250776D01*
X153641522Y-47445465D01*
X153609500Y-47647648D01*
X146049995Y-47647648D01*
X146017990Y-47445582D01*
X145954755Y-47250968D01*
X145861859Y-47068650D01*
X145829474Y-47024077D01*
X145829474Y-47024076D01*
X145150000Y-47703551D01*
X145150000Y-47697339D01*
X145122741Y-47595606D01*
X145070080Y-47504394D01*
X144995606Y-47429920D01*
X144904394Y-47377259D01*
X144802661Y-47350000D01*
X144796446Y-47350000D01*
X145475922Y-46670524D01*
X145475921Y-46670523D01*
X145431359Y-46638147D01*
X145431350Y-46638141D01*
X145249031Y-46545244D01*
X145054417Y-46482009D01*
X144852317Y-46450000D01*
X144647683Y-46450000D01*
X144445582Y-46482009D01*
X144250968Y-46545244D01*
X144068644Y-46638143D01*
X144024077Y-46670523D01*
X144024077Y-46670524D01*
X144703554Y-47350000D01*
X144697339Y-47350000D01*
X144595606Y-47377259D01*
X144504394Y-47429920D01*
X144429920Y-47504394D01*
X144377259Y-47595606D01*
X144350000Y-47697339D01*
X144350000Y-47703553D01*
X143670524Y-47024077D01*
X143670523Y-47024077D01*
X143638143Y-47068644D01*
X143545244Y-47250968D01*
X143482009Y-47445582D01*
X143450000Y-47647682D01*
X91750500Y-47647682D01*
X91750500Y-46430000D01*
X160875138Y-46430000D01*
X161678012Y-46430000D01*
X161660795Y-46439940D01*
X161604940Y-46495795D01*
X161565444Y-46564204D01*
X161545000Y-46640504D01*
X161545000Y-46719496D01*
X161565444Y-46795796D01*
X161604940Y-46864205D01*
X161660795Y-46920060D01*
X161678012Y-46930000D01*
X160875138Y-46930000D01*
X160883430Y-46971690D01*
X160883430Y-46971692D01*
X160958807Y-47153671D01*
X160958814Y-47153684D01*
X161068248Y-47317462D01*
X161068251Y-47317466D01*
X161207533Y-47456748D01*
X161207537Y-47456751D01*
X161371315Y-47566185D01*
X161371328Y-47566192D01*
X161553306Y-47641569D01*
X161553318Y-47641572D01*
X161746504Y-47679999D01*
X161746508Y-47680000D01*
X162145000Y-47680000D01*
X162145000Y-46980000D01*
X162645000Y-46980000D01*
X162645000Y-47518215D01*
X162625315Y-47585254D01*
X162583002Y-47625601D01*
X162541638Y-47649483D01*
X162541632Y-47649487D01*
X162434487Y-47756632D01*
X162434485Y-47756635D01*
X162358719Y-47887863D01*
X162319500Y-48034234D01*
X162319500Y-48185765D01*
X162358719Y-48332136D01*
X162383756Y-48375500D01*
X162434485Y-48463365D01*
X162541635Y-48570515D01*
X162672865Y-48646281D01*
X162819234Y-48685500D01*
X162819236Y-48685500D01*
X162970764Y-48685500D01*
X162970766Y-48685500D01*
X163117135Y-48646281D01*
X163248365Y-48570515D01*
X163355515Y-48463365D01*
X163431281Y-48332135D01*
X163470500Y-48185766D01*
X163470500Y-48034234D01*
X163431281Y-47887865D01*
X163355515Y-47756635D01*
X163355513Y-47756633D01*
X163351451Y-47749597D01*
X163353654Y-47748325D01*
X163333041Y-47695022D01*
X163347073Y-47626576D01*
X163395882Y-47576582D01*
X163409163Y-47570129D01*
X163418682Y-47566186D01*
X163418684Y-47566185D01*
X163582462Y-47456751D01*
X163582466Y-47456748D01*
X163721748Y-47317466D01*
X163721751Y-47317462D01*
X163831185Y-47153684D01*
X163831192Y-47153671D01*
X163906569Y-46971692D01*
X163906569Y-46971690D01*
X163914862Y-46930000D01*
X163111988Y-46930000D01*
X163129205Y-46920060D01*
X163185060Y-46864205D01*
X163224556Y-46795796D01*
X163245000Y-46719496D01*
X163245000Y-46640504D01*
X163224556Y-46564204D01*
X163185060Y-46495795D01*
X163129205Y-46439940D01*
X163111988Y-46430000D01*
X163914862Y-46430000D01*
X165205138Y-46430000D01*
X166008012Y-46430000D01*
X165990795Y-46439940D01*
X165934940Y-46495795D01*
X165895444Y-46564204D01*
X165875000Y-46640504D01*
X165875000Y-46719496D01*
X165895444Y-46795796D01*
X165934940Y-46864205D01*
X165990795Y-46920060D01*
X166008012Y-46930000D01*
X165205138Y-46930000D01*
X165213430Y-46971690D01*
X165213430Y-46971692D01*
X165288807Y-47153671D01*
X165288814Y-47153684D01*
X165398248Y-47317462D01*
X165398251Y-47317466D01*
X165537533Y-47456748D01*
X165537537Y-47456751D01*
X165701315Y-47566185D01*
X165701328Y-47566192D01*
X165883306Y-47641569D01*
X165883318Y-47641572D01*
X166076504Y-47679999D01*
X166076508Y-47680000D01*
X166325000Y-47680000D01*
X166325000Y-46980000D01*
X166825000Y-46980000D01*
X166825000Y-47680000D01*
X167073492Y-47680000D01*
X167073495Y-47679999D01*
X167266681Y-47641572D01*
X167266693Y-47641569D01*
X167448671Y-47566192D01*
X167448684Y-47566185D01*
X167612462Y-47456751D01*
X167612466Y-47456748D01*
X167751748Y-47317466D01*
X167751751Y-47317462D01*
X167861185Y-47153684D01*
X167861192Y-47153671D01*
X167936569Y-46971692D01*
X167936569Y-46971690D01*
X167944862Y-46930000D01*
X167141988Y-46930000D01*
X167159205Y-46920060D01*
X167215060Y-46864205D01*
X167254556Y-46795796D01*
X167275000Y-46719496D01*
X167275000Y-46640504D01*
X167254556Y-46564204D01*
X167215060Y-46495795D01*
X167159205Y-46439940D01*
X167141988Y-46430000D01*
X167944862Y-46430000D01*
X167936569Y-46388309D01*
X167936569Y-46388307D01*
X167861192Y-46206328D01*
X167861185Y-46206315D01*
X167751751Y-46042537D01*
X167751748Y-46042533D01*
X167612466Y-45903251D01*
X167612462Y-45903248D01*
X167448684Y-45793814D01*
X167448671Y-45793807D01*
X167266693Y-45718430D01*
X167266681Y-45718427D01*
X167073495Y-45680000D01*
X166825000Y-45680000D01*
X166825000Y-46380000D01*
X166325000Y-46380000D01*
X166325000Y-45680000D01*
X166076504Y-45680000D01*
X165883318Y-45718427D01*
X165883306Y-45718430D01*
X165701328Y-45793807D01*
X165701315Y-45793814D01*
X165537537Y-45903248D01*
X165537533Y-45903251D01*
X165398251Y-46042533D01*
X165398248Y-46042537D01*
X165288814Y-46206315D01*
X165288807Y-46206328D01*
X165213430Y-46388307D01*
X165213430Y-46388309D01*
X165205138Y-46430000D01*
X163914862Y-46430000D01*
X163906569Y-46388309D01*
X163906569Y-46388307D01*
X163831192Y-46206328D01*
X163831185Y-46206315D01*
X163721751Y-46042537D01*
X163721748Y-46042533D01*
X163582466Y-45903251D01*
X163582462Y-45903248D01*
X163418684Y-45793814D01*
X163418671Y-45793807D01*
X163236693Y-45718430D01*
X163236681Y-45718427D01*
X163043495Y-45680000D01*
X162645000Y-45680000D01*
X162645000Y-46380000D01*
X162145000Y-46380000D01*
X162145000Y-45680000D01*
X161746504Y-45680000D01*
X161553318Y-45718427D01*
X161553306Y-45718430D01*
X161371328Y-45793807D01*
X161371315Y-45793814D01*
X161207537Y-45903248D01*
X161207533Y-45903251D01*
X161068251Y-46042533D01*
X161068248Y-46042537D01*
X160958814Y-46206315D01*
X160958807Y-46206328D01*
X160883430Y-46388307D01*
X160883430Y-46388309D01*
X160875138Y-46430000D01*
X91750500Y-46430000D01*
X91750500Y-44124500D01*
X91770185Y-44057461D01*
X91822989Y-44011706D01*
X91874500Y-44000500D01*
X177125500Y-44000500D01*
X177192539Y-44020185D01*
G37*
%TD.AperFunction*%
%TD*%
M02*
