%TF.GenerationSoftware,KiCad,Pcbnew,10.0.4*%
%TF.CreationDate,2026-06-30T20:18:33+03:00*%
%TF.ProjectId,sound-activated-logic-controller,736f756e-642d-4616-9374-697661746564,rev?*%
%TF.SameCoordinates,Original*%
%TF.FileFunction,Soldermask,Top*%
%TF.FilePolarity,Negative*%
%FSLAX46Y46*%
G04 Gerber Fmt 4.6, Leading zero omitted, Abs format (unit mm)*
G04 Created by KiCad (PCBNEW 10.0.4) date 2026-06-30 20:18:33*
%MOMM*%
%LPD*%
G01*
G04 APERTURE LIST*
G04 Aperture macros list*
%AMRoundRect*
0 Rectangle with rounded corners*
0 $1 Rounding radius*
0 $2 $3 $4 $5 $6 $7 $8 $9 X,Y pos of 4 corners*
0 Add a 4 corners polygon primitive as box body*
4,1,4,$2,$3,$4,$5,$6,$7,$8,$9,$2,$3,0*
0 Add four circle primitives for the rounded corners*
1,1,$1+$1,$2,$3*
1,1,$1+$1,$4,$5*
1,1,$1+$1,$6,$7*
1,1,$1+$1,$8,$9*
0 Add four rect primitives between the rounded corners*
20,1,$1+$1,$2,$3,$4,$5,0*
20,1,$1+$1,$4,$5,$6,$7,0*
20,1,$1+$1,$6,$7,$8,$9,0*
20,1,$1+$1,$8,$9,$2,$3,0*%
G04 Aperture macros list end*
%ADD10C,1.600000*%
%ADD11O,1.800000X1.000000*%
%ADD12O,2.100000X1.000000*%
%ADD13RoundRect,0.150000X0.425000X-0.150000X0.425000X0.150000X-0.425000X0.150000X-0.425000X-0.150000X0*%
%ADD14RoundRect,0.075000X0.500000X-0.075000X0.500000X0.075000X-0.500000X0.075000X-0.500000X-0.075000X0*%
%ADD15C,0.650000*%
%ADD16R,1.700000X1.700000*%
%ADD17C,1.700000*%
%ADD18R,1.800000X1.800000*%
%ADD19C,1.800000*%
%ADD20R,1.600000X1.600000*%
%ADD21O,1.600000X1.600000*%
G04 APERTURE END LIST*
D10*
%TO.C,330\u03A9*%
X162750000Y-125750000D03*
X152590000Y-125750000D03*
%TD*%
D11*
%TO.C,J1*%
X166575000Y-46680000D03*
D12*
X162395000Y-46680000D03*
D11*
X166575000Y-55320000D03*
D12*
X162395000Y-55320000D03*
D13*
X161820000Y-54200000D03*
X161820000Y-53400000D03*
D14*
X161820000Y-52750000D03*
X161820000Y-51750000D03*
X161820000Y-50250000D03*
X161820000Y-49250000D03*
D13*
X161820000Y-48600000D03*
X161820000Y-47800000D03*
X161820000Y-47800000D03*
X161820000Y-48600000D03*
D14*
X161820000Y-49750000D03*
X161820000Y-50750000D03*
X161820000Y-51250000D03*
X161820000Y-52250000D03*
D13*
X161820000Y-53400000D03*
X161820000Y-54200000D03*
D15*
X162895000Y-48110000D03*
X162895000Y-53890000D03*
%TD*%
D10*
%TO.C,330\u03A9*%
X136250000Y-123670000D03*
X136250000Y-133830000D03*
%TD*%
D16*
%TO.C,U1*%
X120500000Y-51000000D03*
D17*
X120500000Y-53540000D03*
X120500000Y-56080000D03*
%TD*%
D10*
%TO.C,5.1k\u03A9*%
X154910000Y-47750000D03*
X144750000Y-47750000D03*
%TD*%
%TO.C,5.1k\u03A9*%
X155000000Y-54500000D03*
X144840000Y-54500000D03*
%TD*%
%TO.C,330\u03A9*%
X111670000Y-125750000D03*
X121830000Y-125750000D03*
%TD*%
D18*
%TO.C,Green Led*%
X134725000Y-139500000D03*
D19*
X137265000Y-139500000D03*
%TD*%
D18*
%TO.C,Yellow Led*%
X170025000Y-125750000D03*
D19*
X167485000Y-125750000D03*
%TD*%
D18*
%TO.C,Red Led*%
X104725000Y-125750000D03*
D19*
X107265000Y-125750000D03*
%TD*%
D20*
%TO.C,A1*%
X131315000Y-67815000D03*
D21*
X133855000Y-67815000D03*
X136395000Y-67815000D03*
X138935000Y-67815000D03*
X141475000Y-67815000D03*
X144015000Y-67815000D03*
X146555000Y-67815000D03*
X149095000Y-67815000D03*
X154175000Y-67815000D03*
X156715000Y-67815000D03*
X159255000Y-67815000D03*
X161795000Y-67815000D03*
X164335000Y-67815000D03*
X166875000Y-67815000D03*
X166875000Y-116075000D03*
X164335000Y-116075000D03*
X161795000Y-116075000D03*
X159255000Y-116075000D03*
X156715000Y-116075000D03*
X154175000Y-116075000D03*
X151635000Y-116075000D03*
X149095000Y-116075000D03*
X145035000Y-116075000D03*
X142495000Y-116075000D03*
X139955000Y-116075000D03*
X137415000Y-116075000D03*
X134875000Y-116075000D03*
X132335000Y-116075000D03*
X129795000Y-116075000D03*
X127255000Y-116075000D03*
X124715000Y-116075000D03*
X122175000Y-116075000D03*
%TD*%
M02*
